<svg id="Layer_1" data-name="Layer 1" xmlns="http://www.w3.org/2000/svg" viewBox="0 0 100 100"><defs><style>.cls-1{fill:#a6d0ff;}</style></defs><title>Artboard 1</title><circle class="cls-1" cx="23.08" cy="9.52" r="8.42"/><circle class="cls-1" cx="82.14" cy="78.45" r="15.22" transform="translate(-15.36 20.19) rotate(-12.82)"/><path class="cls-1" d="M24.47,85.15v9.47a4.57,4.57,0,0,0,9.13,0V85.15Z"/><path class="cls-1" d="M32.69,19.91H13.2A10.58,10.58,0,0,0,2.65,30.48V57.75a3.42,3.42,0,1,0,6.83,0V31.15h2.78l0,63.47a4.57,4.57,0,1,0,9.13,0V58.89h3.07V82H33.6l0-50.81H36.4v26.6a3.42,3.42,0,1,0,6.83,0V30.48A10.57,10.57,0,0,0,32.69,19.91Z"/><path class="cls-1" d="M63.85,95.8h-.06a2,2,0,0,1-2.32-1.55,2,2,0,1,1,2.38,1.53Z"/><path class="cls-1" d="M68.88,93.38a2,2,0,0,1-2.42-2.12A2,2,0,0,1,70,90.18,2,2,0,0,1,69.69,93a1.91,1.91,0,0,1-.81.4Z"/><path class="cls-1" d="M58.24,95.76a2,2,0,0,1-.86,0,2,2,0,0,1-1.24-.87,2,2,0,0,1-.27-1.49,2,2,0,0,1,2.36-1.51,2,2,0,0,1,1.51,2.35,2,2,0,0,1-1.5,1.51Z"/><path class="cls-1" d="M40.6,91.28a2,2,0,0,1-1.4-.58,2,2,0,0,1,0-2.8,2,2,0,0,1,2.79,0,2,2,0,0,1-1.39,3.38Z"/><path class="cls-1" d="M37.21,86.77A2,2,0,0,1,36.34,83a2,2,0,1,1,1.76,3.55,2,2,0,0,1-.88.2Z"/></svg>