<svg id="Layer_1" data-name="Layer 1" xmlns="http://www.w3.org/2000/svg" xmlns:xlink="http://www.w3.org/1999/xlink" viewBox="0 0 504 545.3"><defs><style>.cls-1{mask:url(#mask);filter:url(#luminosity-noclip-2);}.cls-2{mix-blend-mode:multiply;fill:url(#linear-gradient);}.cls-3{fill:url(#bluebullseygradient);}.cls-4{font-size:38px;fill:#fff;font-family:MyriadPro-Regular, Myriad Pro;}.cls-5{fill:url(#linear-gradient-2);}.cls-6{fill:url(#linear-gradient-3);}.cls-7{fill:url(#linear-gradient-4);}.cls-8{fill:url(#linear-gradient-5);}.cls-9{fill:url(#linear-gradient-6);}.cls-10{fill:url(#linear-gradient-7);}.cls-11{mask:url(#mask-2);}.cls-12{fill:url(#linear-gradient-8);}.cls-13{filter:url(#luminosity-noclip);}</style><filter id="luminosity-noclip" x="113.18" y="-8459.4" width="277.64" height="32766" filterUnits="userSpaceOnUse" color-interpolation-filters="sRGB"><feFlood flood-color="#fff" result="bg"/><feBlend in="SourceGraphic" in2="bg"/></filter><mask id="mask" x="113.18" y="-8459.4" width="277.64" height="32766" maskUnits="userSpaceOnUse"><g class="cls-13"/></mask><linearGradient id="linear-gradient" x1="252" y1="43.03" x2="252" y2="178.74" gradientTransform="translate(0 -0.82) scale(1 1.3)" gradientUnits="userSpaceOnUse"><stop offset="0" stop-color="#4d4d4d"/><stop offset="1"/></linearGradient><linearGradient id="bluebullseygradient" x1="252.18" y1="43.96" x2="252.18" y2="461.6" gradientUnits="userSpaceOnUse"><stop offset="0" stop-color="#27aae1"/><stop offset="1" stop-color="#1b75bc"/></linearGradient><linearGradient id="linear-gradient-2" x1="252" y1="83.18" x2="252" y2="420.82" gradientUnits="userSpaceOnUse"><stop offset="0" stop-color="#fff"/><stop offset="1" stop-color="#e6e7e8"/></linearGradient><linearGradient id="linear-gradient-3" x1="252" y1="113.18" x2="252" y2="390.82" gradientUnits="userSpaceOnUse"><stop offset="0" stop-color="#f15d22"/><stop offset="1" stop-color="#d11242"/></linearGradient><linearGradient id="linear-gradient-4" x1="252" y1="143.18" x2="252" y2="360.82" xlink:href="#linear-gradient-2"/><linearGradient id="linear-gradient-5" x1="252" y1="173.18" x2="252" y2="330.82" xlink:href="#linear-gradient-3"/><linearGradient id="linear-gradient-6" x1="252" y1="203.18" x2="252" y2="300.82" xlink:href="#linear-gradient-2"/><linearGradient id="linear-gradient-7" x1="252" y1="233.18" x2="252" y2="270.82" xlink:href="#linear-gradient-3"/><filter id="luminosity-noclip-2" x="113.18" y="55.06" width="277.64" height="176.24" filterUnits="userSpaceOnUse" color-interpolation-filters="sRGB"><feFlood flood-color="#fff" result="bg"/><feBlend in="SourceGraphic" in2="bg"/></filter><mask id="mask-2" x="113.18" y="55.06" width="277.64" height="176.24" maskUnits="userSpaceOnUse"><g class="cls-1"><ellipse class="cls-2" cx="252" cy="143.18" rx="138.82" ry="88.12"/></g></mask><linearGradient id="linear-gradient-8" x1="252" y1="43.03" x2="252" y2="178.74" gradientTransform="translate(0 -0.82) scale(1 1.3)" gradientUnits="userSpaceOnUse"><stop offset="0" stop-color="#fff"/><stop offset="1" stop-color="#fff"/></linearGradient></defs><title>bracket-bull100Res</title><circle class="cls-3" cx="252.18" cy="252.78" r="208.82"/><text class="cls-4" transform="translate(22.66 335.79) rotate(66.32)">M</text><text class="cls-4" transform="matrix(0.51, 0.86, -0.86, 0.51, 36.47, 366.27)">A</text><text class="cls-4" transform="matrix(0.59, 0.8, -0.8, 0.59, 49.9, 388.48)">K</text><text class="cls-4" transform="matrix(0.66, 0.75, -0.75, 0.66, 63.69, 406.86)">E</text><text class="cls-4" transform="translate(77.36 421.91) rotate(44.84)"> </text><text class="cls-4" transform="translate(84.22 428.93) rotate(41.12)">P</text><text class="cls-4" transform="matrix(0.81, 0.58, -0.58, 0.81, 101.39, 443.78)">R</text><text class="cls-4" transform="matrix(0.86, 0.51, -0.51, 0.86, 120, 457.01)">E</text><text class="cls-4" transform="translate(138.56 467.92) rotate(25.26)">V</text><text class="cls-4" transform="translate(159.56 477.51) rotate(21.23)">I</text><text class="cls-4" transform="translate(169.98 481.84) rotate(16.54)">O</text><text class="cls-4" transform="translate(198.16 489.97) rotate(9.8)">U</text><text class="cls-4" transform="translate(225.06 494.33) rotate(4.09)">S</text><text class="cls-4" transform="translate(246.09 495.75) rotate(-0.93)">L</text><text class="cls-4" transform="translate(262.68 495.61) rotate(-4.87)">Y</text><text class="cls-4" transform="translate(284.89 493.46) rotate(-8.64)"> </text><text class="cls-4" transform="matrix(0.97, -0.24, 0.24, 0.97, 295.28, 492.28)">M</text><text class="cls-4" transform="translate(327.79 483.79) rotate(-20.31)">E</text><text class="cls-4" transform="matrix(0.9, -0.44, 0.44, 0.9, 347.76, 476.38)">A</text><text class="cls-4" transform="matrix(0.85, -0.53, 0.53, 0.85, 371.31, 464.82)">N</text><text class="cls-4" transform="matrix(0.8, -0.6, 0.6, 0.8, 394, 450.04)">I</text><text class="cls-4" transform="translate(403.11 443.52) rotate(-41.23)">N</text><text class="cls-4" transform="translate(424.07 424.9) rotate(-47.73)">G</text><text class="cls-4" transform="translate(442.13 404.61) rotate(-53.32)">L</text><text class="cls-4" transform="matrix(0.53, -0.85, 0.85, 0.53, 454.11, 388.38)">E</text><text class="cls-4" transform="matrix(0.45, -0.89, 0.89, 0.45, 465.11, 370.5)">S</text><text class="cls-4" transform="translate(474.56 351.67) rotate(-68.06)">S</text><text class="cls-4" transform="translate(481.97 332.69) rotate(-71.62)"> </text><path class="cls-5" d="M252,420.82c-93.09,0-168.82-75.73-168.82-168.82S158.91,83.18,252,83.18,420.82,158.91,420.82,252,345.09,420.82,252,420.82Z"/><path class="cls-6" d="M252,390.82c-76.55,0-138.82-62.27-138.82-138.82S175.45,113.18,252,113.18,390.82,175.45,390.82,252,328.55,390.82,252,390.82Z"/><path class="cls-7" d="M252,360.82A108.82,108.82,0,1,1,360.82,252,108.94,108.94,0,0,1,252,360.82Z"/><path class="cls-8" d="M252,330.82A78.82,78.82,0,1,1,330.82,252,78.91,78.91,0,0,1,252,330.82Z"/><path class="cls-9" d="M252,300.82A48.82,48.82,0,1,1,300.82,252,48.88,48.88,0,0,1,252,300.82Z"/><path class="cls-10" d="M252,270.82A18.82,18.82,0,1,1,270.82,252,18.84,18.84,0,0,1,252,270.82Z"/><text class="cls-4" transform="matrix(0.77, -0.64, 0.64, 0.77, 106.86, 92.07)">B</text><text class="cls-4" transform="matrix(0.82, -0.57, 0.57, 0.82, 122.78, 78.73)">R</text><text class="cls-4" transform="translate(139.93 66.9) rotate(-28.48)">A</text><text class="cls-4" transform="translate(160.03 56.01) rotate(-22.49)">C</text><text class="cls-4" transform="translate(180.58 47.55) rotate(-16.7)">K</text><text class="cls-4" transform="matrix(0.98, -0.2, 0.2, 0.98, 200.47, 41.64)">E</text><text class="cls-4" transform="matrix(0.99, -0.11, 0.11, 0.99, 219.56, 37.83)">T</text><text class="cls-4" transform="matrix(1, -0.04, 0.04, 1, 238.46, 35.98)"> </text><text class="cls-4" transform="translate(246.62 35.38) rotate(1.49)">C</text><text class="cls-4" transform="translate(268.07 35.79) rotate(7.75)">O</text><text class="cls-4" transform="matrix(0.97, 0.25, -0.25, 0.97, 294.23, 39.39)">N</text><text class="cls-4" transform="matrix(0.94, 0.35, -0.35, 0.94, 318.55, 45.94)">T</text><text class="cls-4" transform="matrix(0.9, 0.43, -0.43, 0.9, 336.34, 52.65)">E</text><text class="cls-4" transform="matrix(0.86, 0.51, -0.51, 0.86, 353.33, 60.84)">S</text><text class="cls-4" transform="matrix(0.81, 0.59, -0.59, 0.81, 369.55, 70.52)">T</text><text class="cls-4" transform="matrix(0.76, 0.65, -0.65, 0.76, 384.79, 81.55)">S</text><g class="cls-11"><ellipse class="cls-12" cx="252" cy="143.18" rx="138.82" ry="88.12"/></g><text></text><text class="cls-4" transform="matrix(0.63, 0.78, -0.78, 0.63, 25.5, 423.33)">P</text><text class="cls-4" transform="translate(39.44 440.27) rotate(46.65)">L</text><text class="cls-4" transform="matrix(0.74, 0.67, -0.67, 0.74, 53.02, 454.7)">A</text><text class="cls-4" transform="translate(69.29 469.42) rotate(38)">Y</text><text class="cls-4" transform="translate(85.94 482.55) rotate(33.17)">O</text><text class="cls-4" transform="matrix(0.88, 0.47, -0.47, 0.88, 109.7, 497.78)">F</text><text class="cls-4" transform="translate(127.53 507.29) rotate(24.15)">F</text><text class="cls-4" transform="translate(145.59 515.21) rotate(21.21)"> </text><text class="cls-4" transform="matrix(0.95, 0.3, -0.3, 0.95, 154.41, 518.86)">G</text><text class="cls-4" transform="translate(179.94 526.82) rotate(12.3)">A</text><text class="cls-4" transform="matrix(0.99, 0.11, -0.11, 0.99, 204.91, 532.33)">M</text><text class="cls-4" transform="translate(237.54 535.59) rotate(1.01)">E</text><text class="cls-4" transform="translate(257.9 535.9) rotate(-3.04)">S</text><text class="cls-4" transform="translate(277.78 534.68) rotate(-5.96)"> </text><text class="cls-4" transform="translate(287.6 534.01) rotate(-10.22)">M</text><text class="cls-4" transform="matrix(0.96, -0.27, 0.27, 0.96, 319.81, 527.81)">E</text><text class="cls-4" transform="translate(339.67 522.25) rotate(-20.33)">A</text><text class="cls-4" transform="translate(363.55 513.34) rotate(-25.67)">N</text><text class="cls-4" transform="translate(387.33 501.56) rotate(-29.43)">I</text><text class="cls-4" transform="matrix(0.84, -0.55, 0.55, 0.84, 396.7, 496.51)">N</text><text class="cls-4" transform="matrix(0.78, -0.62, 0.62, 0.78, 419.46, 481.48)">G</text><text class="cls-4" transform="matrix(0.73, -0.69, 0.69, 0.73, 440.02, 464.79)">F</text><text class="cls-4" transform="translate(454.94 450.77) rotate(-48.06)">U</text><text class="cls-4" transform="matrix(0.61, -0.8, 0.8, 0.61, 472.5, 430.92)">L</text><text></text><text></text></svg>