<svg id="Ñëîé_1" data-name="Ñëîé 1" xmlns="http://www.w3.org/2000/svg" viewBox="0 0 400 341.64"><defs><style>.cls-1{fill:#a6d0ff;}</style></defs><title>Artboard 3100Res</title><path class="cls-1" d="M4.24,155.43A47.54,47.54,0,0,0,0,175.88a51.62,51.62,0,0,0,29.27,46.23c1.74-26.68,18.19-50.3,42.47-60.64.12-.06.23-.19.37-.25l3.13-1.2a3.8,3.8,0,0,1,4.9,2.18A3.74,3.74,0,0,1,78.22,167s0,.08,0,.12c-24.66,8.7-41.15,32.47-41.48,59,0,1.27,0,2.51.06,3.8s.1,2.33.21,3.53a4,4,0,0,1,0,.5,101.8,101.8,0,0,0,1.87,11.85A70.92,70.92,0,0,0,101.16,299c2.16.19,4.36.31,6.56.31,2.37,0,4.75-.12,7.12-.35l4.82-.5-6.06,43.2h44.24v-3.09c0-37.6,34.67-68.38,66.1-72.29l.93-.52q2.21.12,4.42.12c.42,0,.85,0,1.27,0,1.14,0,2.26-.06,3.38-.1,2.59-.15,5.21-.42,7.87-.83,16.77-2.72,31.14-10.4,40.9-20.66a71.1,71.1,0,0,0,10-14.95,39.2,39.2,0,0,0,3-22c-2.6-16.15-15.34-28.73-32.63-34.81a7.08,7.08,0,0,1,.27-2.62,8,8,0,0,1,3.16-4.17c19.39,7.14,33.71,21.76,36.7,40.4a44.67,44.67,0,0,1-.06,14.3,61.8,61.8,0,0,0,12.17-2.59l.81-.25.83.08a119.59,119.59,0,0,0,12.44.89,70.65,70.65,0,0,0,54.45-115.65c-3.53,24.14-23.29,42.7-47.21,43A38.92,38.92,0,0,1,344,174.94a3.81,3.81,0,0,1-3.78,3.32,4.08,4.08,0,0,1-.48,0A3.79,3.79,0,0,1,336.5,174a32,32,0,0,0-13-30.62,3.8,3.8,0,0,1,4.09-6.39l.52.33a37.23,37.23,0,0,0,8.1.93c22.42,0,40.67-19.33,40.67-43.1a40.6,40.6,0,0,0-.21-4.21c-.06-.6-.15-1.2-.23-1.81s-.17-1.27-.27-1.89A53.31,53.31,0,0,0,370.44,72a50.25,50.25,0,0,0-19.8-20l-3.3-1.66,0,0a5.91,5.91,0,0,1-1.68-.83l0,0a11.13,11.13,0,0,1-1.85-.66l-.52-.27a7.23,7.23,0,0,1-1-.33,5.67,5.67,0,0,1-1.37-.37h-.89l-.81-.42-1-.52a5.72,5.72,0,0,1-2.3-.46,9.25,9.25,0,0,1-2.3-.33L333,46h-6.27l-.27-.46-.83-1.35a43.28,43.28,0,0,0-37.2-20.72,49.4,49.4,0,0,0-11.13,1.29l-2.2.5-1.47-1.7A61.31,61.31,0,0,0,227.34,2.76,62.58,62.58,0,0,0,201.76,8l-2,.87L198,7.58A43.58,43.58,0,0,0,173.12,0a47.75,47.75,0,0,0-25.2,7.6c14.43,8,24.52,24.29,25.2,43.2,0,0,0,0,0,0a22.23,22.23,0,0,1,0,2.74,3.78,3.78,0,0,1-3.78,3.51H169A3.8,3.8,0,0,1,165.5,53a13.43,13.43,0,0,0-.06-2.55c0-.23,0-.46,0-.69-1.33-20.82-15.76-37.6-34-39.73-.48-.06-1-.06-1.45-.1s-.77,0-1.16-.08c-1-.08-2.06-.21-3.07-.21A43.93,43.93,0,0,0,86.46,34.17l-1,2-1.14.1-1,.08C56.9,38.43,34.59,59.31,30.29,86L30,88l-1.87.85A47.65,47.65,0,0,0,0,132.24a54.88,54.88,0,0,0,4.32,20.18l.6,1.54ZM264.09,76.79a3.81,3.81,0,0,1,5.17,1.49c.06.12,7.52,13.43,22.71,18.12a40.3,40.3,0,0,0,31.8-3.51,3.8,3.8,0,0,1,3.78,6.6,47.56,47.56,0,0,1-23.77,6.29,43.9,43.9,0,0,1-14.28-2.2c-17.85-5.52-26.55-21-26.9-21.63A3.81,3.81,0,0,1,264.09,76.79Zm-33.3,98.84c2.32-16.17,16.84-25.7,17.44-26.1a3.8,3.8,0,0,1,4.13,6.37c-.12.08-12.23,8.12-14,20.8s3.78,20.78,4,21.09a3.8,3.8,0,1,1-6.12,4.5C235.89,201.87,228.5,191.61,230.79,175.63Zm-18.06-99.5a3.79,3.79,0,0,1-3.94,3.65,33.14,33.14,0,0,0-26.68,14.53,30.3,30.3,0,0,0-5.21,17.52,3.8,3.8,0,1,1-7.6,0c0-13.43,6.58-21.9,6.71-22a40.31,40.31,0,0,1,33.09-17.62A3.8,3.8,0,0,1,212.73,76.13ZM149.37,202.6a3.81,3.81,0,0,1-3.59-4c.85-15.18,7.08-25.1,12.43-30.93a60.33,60.33,0,0,1-6.73.37c-29.42,0-54.08-19.7-60.83-46.15,0-.06,0-.1,0-.15L90.26,120a3.83,3.83,0,0,1,3-4.44,3.78,3.78,0,0,1,4.44,3l.27,1.39c5.85,23.21,27.57,40.5,53.48,40.5,29.19,0,53-22,54.87-49.62,0-.1,0-.19,0-.29l.27-3.09a3.8,3.8,0,0,1,7.58.69l-.17,1.76,0,0c-1.08,25.49-18.52,46.94-42.41,54.83a3.76,3.76,0,0,1-1.81,2.89c-.62.35-15.22,9.07-16.48,31.37a3.78,3.78,0,0,1-3.78,3.59ZM82.48,226.84a46,46,0,0,0,24.23,17.38c19,5.65,36-5.73,36.23-5.92a3.8,3.8,0,0,1,4.32,6.25,56,56,0,0,1-29.42,8.89,45.59,45.59,0,0,1-13.08-1.89,52.78,52.78,0,0,1-28.48-20.32,3.8,3.8,0,0,1,6.21-4.38ZM69.15,111a54.38,54.38,0,0,1,20.1-23.89,53.8,53.8,0,0,1,28.88-8.47,3.79,3.79,0,0,1,3.61,4,3.84,3.84,0,0,1-3.94,3.63A46.6,46.6,0,0,0,93.32,93.5c-12.06,7.68-17,20.12-17.15,20.39,0,.08-3.86,8.84-3.59,17.58a3.78,3.78,0,0,1-3.67,3.9.26.26,0,0,1-.12,0,3.82,3.82,0,0,1-3.8-3.7C64.67,121.26,69,111.25,69.15,111Z"/></svg>