<svg id="Layer_1" data-name="Layer 1" xmlns="http://www.w3.org/2000/svg" xmlns:xlink="http://www.w3.org/1999/xlink" viewBox="0 0 417.64 417.64"><defs><style>.cls-1{mask:url(#mask);filter:url(#luminosity-noclip-3);}.cls-2,.cls-4{mix-blend-mode:multiply;}.cls-2{fill:url(#linear-gradient);}.cls-3{mask:url(#mask-2);filter:url(#luminosity-noclip-4);}.cls-4{fill:url(#linear-gradient-2);}.cls-5{fill:url(#linear-gradient-3);}.cls-6{fill:url(#linear-gradient-4);}.cls-7{fill:url(#linear-gradient-5);}.cls-8{fill:url(#linear-gradient-6);}.cls-9{fill:url(#linear-gradient-7);}.cls-10{fill:url(#linear-gradient-8);}.cls-11{fill:url(#linear-gradient-9);}.cls-12{mask:url(#mask-3);}.cls-13{fill:url(#linear-gradient-10);}.cls-14{mask:url(#mask-4);}.cls-15{fill:url(#linear-gradient-11);}.cls-16{filter:url(#luminosity-noclip-2);}.cls-17{filter:url(#luminosity-noclip);}</style><filter id="luminosity-noclip" x="3.79" y="-8416.22" width="410.06" height="32766" filterUnits="userSpaceOnUse" color-interpolation-filters="sRGB"><feFlood flood-color="#fff" result="bg"/><feBlend in="SourceGraphic" in2="bg"/></filter><mask id="mask" x="3.79" y="-8416.22" width="410.06" height="32766" maskUnits="userSpaceOnUse"><g class="cls-17"/></mask><linearGradient id="linear-gradient" x1="208.82" y1="3" x2="208.82" y2="205.82" gradientUnits="userSpaceOnUse"><stop offset="0" stop-color="#4d4d4d"/><stop offset="1"/></linearGradient><filter id="luminosity-noclip-2" x="70" y="-8416.22" width="277.64" height="32766" filterUnits="userSpaceOnUse" color-interpolation-filters="sRGB"><feFlood flood-color="#fff" result="bg"/><feBlend in="SourceGraphic" in2="bg"/></filter><mask id="mask-2" x="70" y="-8416.22" width="277.64" height="32766" maskUnits="userSpaceOnUse"><g class="cls-16"/></mask><linearGradient id="linear-gradient-2" x1="208.82" y1="-0.15" x2="208.82" y2="135.56" gradientTransform="translate(0 12.07) scale(1 1.3)" xlink:href="#linear-gradient"/><linearGradient id="linear-gradient-3" x1="208.82" x2="208.82" y2="417.64" gradientUnits="userSpaceOnUse"><stop offset="0" stop-color="#27aae1"/><stop offset="1" stop-color="#1b75bc"/></linearGradient><linearGradient id="linear-gradient-4" x1="208.82" y1="40" x2="208.82" y2="377.64" gradientUnits="userSpaceOnUse"><stop offset="0" stop-color="#fff"/><stop offset="1" stop-color="#e6e7e8"/></linearGradient><linearGradient id="linear-gradient-5" x1="208.82" y1="70" x2="208.82" y2="347.64" gradientUnits="userSpaceOnUse"><stop offset="0" stop-color="#f15d22"/><stop offset="1" stop-color="#d11242"/></linearGradient><linearGradient id="linear-gradient-6" x1="208.82" y1="100" x2="208.82" y2="317.64" xlink:href="#linear-gradient-4"/><linearGradient id="linear-gradient-7" x1="208.82" y1="130" x2="208.82" y2="287.64" xlink:href="#linear-gradient-5"/><linearGradient id="linear-gradient-8" x1="208.82" y1="160" x2="208.82" y2="257.64" xlink:href="#linear-gradient-4"/><linearGradient id="linear-gradient-9" x1="208.82" y1="190" x2="208.82" y2="227.64" xlink:href="#linear-gradient-5"/><filter id="luminosity-noclip-3" x="3.79" y="3" width="410.06" height="202.82" filterUnits="userSpaceOnUse" color-interpolation-filters="sRGB"><feFlood flood-color="#fff" result="bg"/><feBlend in="SourceGraphic" in2="bg"/></filter><mask id="mask-3" x="3.79" y="3" width="410.06" height="202.82" maskUnits="userSpaceOnUse"><g class="cls-1"><path class="cls-2" d="M208.82,205.82c-71.22,0-140.18-5.08-205-15.11a205.83,205.83,0,0,1,410.06,0C349,200.74,280,205.82,208.82,205.82Z"/></g></mask><linearGradient id="linear-gradient-10" x1="208.82" y1="3" x2="208.82" y2="205.82" gradientUnits="userSpaceOnUse"><stop offset="0" stop-color="#fff"/><stop offset="1" stop-color="#fff"/></linearGradient><filter id="luminosity-noclip-4" x="70" y="11.88" width="277.64" height="176.24" filterUnits="userSpaceOnUse" color-interpolation-filters="sRGB"><feFlood flood-color="#fff" result="bg"/><feBlend in="SourceGraphic" in2="bg"/></filter><mask id="mask-4" x="70" y="11.88" width="277.64" height="176.24" maskUnits="userSpaceOnUse"><g class="cls-3"><ellipse class="cls-4" cx="208.82" cy="100" rx="138.82" ry="88.12"/></g></mask><linearGradient id="linear-gradient-11" x1="208.82" y1="-0.15" x2="208.82" y2="135.56" gradientTransform="translate(0 12.07) scale(1 1.3)" xlink:href="#linear-gradient-10"/></defs><title>Artboard 2100Res</title><circle class="cls-5" cx="208.82" cy="208.82" r="208.82"/><path class="cls-6" d="M208.82,377.64C115.73,377.64,40,301.91,40,208.82S115.73,40,208.82,40s168.82,75.73,168.82,168.82S301.91,377.64,208.82,377.64Z"/><path class="cls-7" d="M208.82,347.64C132.27,347.64,70,285.37,70,208.82S132.27,70,208.82,70s138.82,62.27,138.82,138.82S285.37,347.64,208.82,347.64Z"/><path class="cls-8" d="M208.82,317.64A108.82,108.82,0,1,1,317.64,208.82,108.94,108.94,0,0,1,208.82,317.64Z"/><path class="cls-9" d="M208.82,287.64a78.82,78.82,0,1,1,78.82-78.82A78.91,78.91,0,0,1,208.82,287.64Z"/><path class="cls-10" d="M208.82,257.64a48.82,48.82,0,1,1,48.82-48.82A48.88,48.88,0,0,1,208.82,257.64Z"/><path class="cls-11" d="M208.82,227.64a18.82,18.82,0,1,1,18.82-18.82A18.84,18.84,0,0,1,208.82,227.64Z"/><g class="cls-12"><path class="cls-13" d="M208.82,205.82c-71.22,0-140.18-5.08-205-15.11a205.83,205.83,0,0,1,410.06,0C349,200.74,280,205.82,208.82,205.82Z"/></g><g class="cls-14"><ellipse class="cls-15" cx="208.82" cy="100" rx="138.82" ry="88.12"/></g></svg>