<svg id="Layer_1" data-name="Layer 1" xmlns="http://www.w3.org/2000/svg" viewBox="0 0 94.22 88.62"><defs><style>.cls-1{fill:#fff;stroke:#aacded;stroke-miterlimit:10;}</style></defs><title>cash</title><path class="cls-1" d="M11.91,61.34l.06-.52-.31,0-.06.53a1.75,1.75,0,0,0-.48.07,1.31,1.31,0,0,0-.39.19,1,1,0,0,0-.27.3,1,1,0,0,0-.13.39.83.83,0,0,0,.06.44,1.11,1.11,0,0,0,.23.34,2,2,0,0,0,.35.27l.4.25-.17,1.63-.3-.05-.3-.1-.28-.13-.24-.16,0,.4a2.49,2.49,0,0,0,1.13.36l-.06.61.31,0,.07-.63a1.91,1.91,0,0,0,.51-.07,1.29,1.29,0,0,0,.39-.19,1,1,0,0,0,.26-.29.92.92,0,0,0,.12-.37.88.88,0,0,0,0-.33.87.87,0,0,0-.16-.3,1.89,1.89,0,0,0-.33-.31,4.91,4.91,0,0,0-.53-.34l.18-1.67a1.89,1.89,0,0,1,.89.31l0-.38a1.89,1.89,0,0,0-.37-.15A3.35,3.35,0,0,0,11.91,61.34Zm-.51,1.81a2.94,2.94,0,0,1-.32-.22,1,1,0,0,1-.2-.21.56.56,0,0,1-.09-.21.8.8,0,0,1,0-.24.62.62,0,0,1,.24-.44.93.93,0,0,1,.54-.18ZM12,64a1.15,1.15,0,0,1,.2.21.66.66,0,0,1,.1.21.62.62,0,0,1,0,.22.59.59,0,0,1-.23.42,1,1,0,0,1-.57.18l.15-1.47Z"/><path class="cls-1" d="M77.67,71.75a1.17,1.17,0,0,0,0-.4.9.9,0,0,0-.17-.32.86.86,0,0,0-.29-.22.75.75,0,0,0-.61,0,1.76,1.76,0,0,0-.38.2,4.44,4.44,0,0,0-.46.36l-1.41-.68a1.77,1.77,0,0,1,.55-.68l-.32-.16a1.76,1.76,0,0,0-.25.28,3,3,0,0,0-.26.43l-.44-.21-.13.26.45.22a1.6,1.6,0,0,0-.09.44,1.21,1.21,0,0,0,0,.4A1,1,0,0,0,74,72a.9.9,0,0,0,.3.24.78.78,0,0,0,.4.09,1,1,0,0,0,.37-.1,1.85,1.85,0,0,0,.35-.22l.34-.27,1.38.67a2,2,0,0,1-.14.25,2.15,2.15,0,0,1-.18.23l-.2.2-.21.16.34.17a2.33,2.33,0,0,0,.68-.87l.52.25.13-.26-.53-.26A1.75,1.75,0,0,0,77.67,71.75Zm-2.51,0a.93.93,0,0,1-.24.11.53.53,0,0,1-.21,0,.73.73,0,0,1-.21-.07.58.58,0,0,1-.31-.35.88.88,0,0,1,0-.53l1.27.61A2.53,2.53,0,0,1,75.16,71.74Zm2.14.35-1.24-.6.3-.21a1.07,1.07,0,0,1,.25-.11.63.63,0,0,1,.22,0,.57.57,0,0,1,.2.06.55.55,0,0,1,.3.33A.94.94,0,0,1,77.3,72.09Z"/><path class="cls-1" d="M14.63,42.5a1.15,1.15,0,0,0,.4.25,2.59,2.59,0,0,0,.6.15,6.53,6.53,0,0,0,.86.05l.89,2.11a2.59,2.59,0,0,1-1.27.22l.21.49a2.65,2.65,0,0,0,.55-.06,4.28,4.28,0,0,0,.69-.22l.28.66.39-.17L18,45.3a2.39,2.39,0,0,0,.52-.41,1.8,1.8,0,0,0,.34-.49,1.39,1.39,0,0,0,.13-.54,1.31,1.31,0,0,0-.11-.55,1.14,1.14,0,0,0-.36-.48,1.51,1.51,0,0,0-.5-.25,2.73,2.73,0,0,0-.59-.1l-.63,0-.87-2.06a2.91,2.91,0,0,1,.4-.13l.42-.08.42,0a2.18,2.18,0,0,1,.39,0l-.22-.51A3.4,3.4,0,0,0,15.7,40l-.33-.78-.39.17.34.8a2.65,2.65,0,0,0-.56.43,1.74,1.74,0,0,0-.34.49,1.32,1.32,0,0,0-.12.52,1.23,1.23,0,0,0,.1.53A1.21,1.21,0,0,0,14.63,42.5Zm2.87.53a1.42,1.42,0,0,1,.37.12.75.75,0,0,1,.25.19,1,1,0,0,1,.17.28.85.85,0,0,1,0,.69,1.28,1.28,0,0,1-.52.58L17,43A3.8,3.8,0,0,1,17.51,43Zm-2.58-1.86a1.37,1.37,0,0,1,.56-.59l.79,1.85a4.33,4.33,0,0,1-.53-.06,1.55,1.55,0,0,1-.38-.12.9.9,0,0,1-.26-.18.83.83,0,0,1-.17-.26A.8.8,0,0,1,14.93,41.17Z"/><path class="cls-1" d="M86.8,40.77a.6.6,0,0,0-.43-.25,1.42,1.42,0,0,0-.34,0,3.65,3.65,0,0,0-.47.09l-.77-1a1.43,1.43,0,0,1,.65-.29l-.18-.23a1.43,1.43,0,0,0-.28.11,2.41,2.41,0,0,0-.34.21l-.24-.31-.19.14.24.32a1.32,1.32,0,0,0-.22.29,1,1,0,0,0-.11.31.77.77,0,0,0,0,.31.72.72,0,0,0,.13.28.62.62,0,0,0,.26.21.85.85,0,0,0,.3.06,1.46,1.46,0,0,0,.33,0l.34-.07.75,1L86,42l-.22.1-.22.07-.21,0,.19.24a1.88,1.88,0,0,0,.81-.38l.28.37.19-.14-.29-.38a1.49,1.49,0,0,0,.24-.3,1,1,0,0,0,.12-.31.73.73,0,0,0,0-.29A.67.67,0,0,0,86.8,40.77ZM85,40.71a.76.76,0,0,1-.21,0,.42.42,0,0,1-.16-.07.6.6,0,0,1-.13-.13.47.47,0,0,1-.1-.37.7.7,0,0,1,.2-.38l.69.91Zm1.41,1-.67-.88.29,0h.22a.48.48,0,0,1,.17.06.45.45,0,0,1,.13.12.45.45,0,0,1,.09.35A.76.76,0,0,1,86.42,41.75Z"/><path class="cls-1" d="M58.5,81.67l.09-.41-.25-.05-.09.42a1.42,1.42,0,0,0-.39,0,1,1,0,0,0-.33.12.81.81,0,0,0-.24.22.77.77,0,0,0-.13.3.67.67,0,0,0,0,.35.91.91,0,0,0,.16.29,1.57,1.57,0,0,0,.26.25l.3.23-.27,1.29-.24-.07-.23-.1-.21-.13-.18-.15-.07.32a2,2,0,0,0,.87.38l-.1.49.25.05.1-.5a1.55,1.55,0,0,0,.41,0,1,1,0,0,0,.33-.12.76.76,0,0,0,.23-.21.74.74,0,0,0,.13-.29.7.7,0,0,0,0-.26.67.67,0,0,0-.11-.26,1.56,1.56,0,0,0-.24-.27,3.89,3.89,0,0,0-.4-.31l.28-1.32a1.51,1.51,0,0,1,.69.32l.06-.3a1.52,1.52,0,0,0-.28-.15A2.45,2.45,0,0,0,58.5,81.67Zm-.16,2.11a.91.91,0,0,1,.15.18.51.51,0,0,1,.07.18.5.5,0,0,1,0,.18.47.47,0,0,1-.22.32.81.81,0,0,1-.47.09l.24-1.16Zm-.39-.7-.24-.21a.8.8,0,0,1-.14-.18.46.46,0,0,1-.06-.18.63.63,0,0,1,0-.19.5.5,0,0,1,.23-.33.76.76,0,0,1,.45-.1Z"/><path class="cls-1" d="M78.47,5.93a1,1,0,0,0,.29.2,1.7,1.7,0,0,0,.36.11l.39.07.37,1.36-.26.05-.27,0-.26,0-.24-.05.09.34a2.15,2.15,0,0,0,1-.06l.14.51.26-.07-.14-.53a1.67,1.67,0,0,0,.39-.22,1.1,1.1,0,0,0,.26-.27A.83.83,0,0,0,81,7a.79.79,0,0,0,0-.34.73.73,0,0,0-.12-.25.72.72,0,0,0-.23-.19,1.61,1.61,0,0,0-.36-.14,4.1,4.1,0,0,0-.53-.1l-.38-1.39a1.63,1.63,0,0,1,.81,0l-.09-.32a1.69,1.69,0,0,0-.35,0,2.76,2.76,0,0,0-.45.08l-.12-.44L78.88,4l.12.44a1.53,1.53,0,0,0-.36.21,1.12,1.12,0,0,0-.25.28.88.88,0,0,0-.12.33.81.81,0,0,0,0,.35A.7.7,0,0,0,78.47,5.93Zm1.67.51a1,1,0,0,1,.23.1.57.57,0,0,1,.15.14.51.51,0,0,1,.08.18.51.51,0,0,1-.05.41.86.86,0,0,1-.4.32l-.34-1.22ZM78.7,5a.81.81,0,0,1,.38-.32L79.42,6l-.33-.08a.88.88,0,0,1-.22-.1.49.49,0,0,1-.14-.14.68.68,0,0,1-.08-.19A.53.53,0,0,1,78.7,5Z"/><path class="cls-1" d="M62.64,39a2,2,0,0,0,.23.63,1.46,1.46,0,0,0,.4.44,1.39,1.39,0,0,0,.55.24,1.33,1.33,0,0,0,.5,0,1.31,1.31,0,0,0,.49-.21,2.87,2.87,0,0,0,.52-.47,7.19,7.19,0,0,0,.59-.77l2.53.5a2.91,2.91,0,0,1-.6,1.32l.58.12a2.89,2.89,0,0,0,.28-.55,4.75,4.75,0,0,0,.23-.78l.79.16.09-.47L69,39a2.66,2.66,0,0,0,0-.74,2,2,0,0,0-.24-.62,1.55,1.55,0,0,0-.42-.46,1.46,1.46,0,0,0-.58-.25,1.28,1.28,0,0,0-.68,0,1.71,1.71,0,0,0-.55.31,3.05,3.05,0,0,0-.46.49l-.43.57-2.47-.49a3.48,3.48,0,0,1,.12-.45,3.74,3.74,0,0,1,.19-.45,3.65,3.65,0,0,1,.24-.41,2.5,2.5,0,0,1,.28-.34l-.61-.12a3.83,3.83,0,0,0-.71,1.67l-.93-.18-.09.47,1,.19A3.1,3.1,0,0,0,62.64,39Zm4-1a1.58,1.58,0,0,1,.34-.27.86.86,0,0,1,.33-.11,1.2,1.2,0,0,1,.36,0,1,1,0,0,1,.64.43,1.44,1.44,0,0,1,.21.85l-2.28-.45A4.41,4.41,0,0,1,66.65,38Zm-1.33.77a4.84,4.84,0,0,1-.39.46,1.77,1.77,0,0,1-.35.28,1,1,0,0,1-.34.13,1,1,0,0,1-.35,0,.91.91,0,0,1-.61-.41,1.55,1.55,0,0,1-.19-.9Z"/><path class="cls-1" d="M35.38,18.87l.67.06.11-1.36a4.13,4.13,0,0,0,1.09-.18,2.76,2.76,0,0,0,.84-.42,2.07,2.07,0,0,0,.55-.63,2,2,0,0,0,.24-.81,1.88,1.88,0,0,0-.07-.7,1.83,1.83,0,0,0-.37-.65,4,4,0,0,0-.74-.65,10.26,10.26,0,0,0-1.16-.7l.29-3.6a4.07,4.07,0,0,1,1.93.62L38.84,9A4.12,4.12,0,0,0,38,8.71a6.72,6.72,0,0,0-1.13-.2L37,7.38l-.67-.06-.09,1.15a3.76,3.76,0,0,0-1,.18,2.82,2.82,0,0,0-.83.44,2.2,2.2,0,0,0-.58.66,2.05,2.05,0,0,0-.26.85,1.8,1.8,0,0,0,.15.94,2.41,2.41,0,0,0,.52.71,4.3,4.3,0,0,0,.76.57l.86.51-.29,3.51a4.62,4.62,0,0,1-.65-.1,5.21,5.21,0,0,1-.65-.19,5,5,0,0,1-.61-.27,3.53,3.53,0,0,1-.52-.33l-.07.87a5.36,5.36,0,0,0,2.44.73Zm1.1-5.17a6.83,6.83,0,0,1,.69.47,2.46,2.46,0,0,1,.45.44,1.4,1.4,0,0,1,.24.45,1.31,1.31,0,0,1,0,.48,1.26,1.26,0,0,1-.47.92,2.15,2.15,0,0,1-1.22.41ZM35.19,12a2.21,2.21,0,0,1-.43-.43,1.21,1.21,0,0,1-.21-.45,1.68,1.68,0,0,1,0-.51,1.34,1.34,0,0,1,.49-1,2,2,0,0,1,1.15-.42l-.26,3.25A6.24,6.24,0,0,1,35.19,12Z"/><path class="cls-1" d="M45.82,64.49l-.42.73.37.21.43-.75a2.64,2.64,0,0,0,.68.19,1.75,1.75,0,0,0,.6,0,1.3,1.3,0,0,0,.49-.22,1.24,1.24,0,0,0,.35-.4,1.19,1.19,0,0,0,.15-.42,1.16,1.16,0,0,0,0-.47,2.54,2.54,0,0,0-.25-.57,6.54,6.54,0,0,0-.48-.71l1.13-2a2.58,2.58,0,0,1,.94.87l.26-.46a2.61,2.61,0,0,0-.38-.39,4.3,4.3,0,0,0-.6-.42l.35-.62L49,58.84l-.36.63a2.39,2.39,0,0,0-.64-.17,1.78,1.78,0,0,0-.6,0,1.4,1.4,0,0,0-.51.23,1.29,1.29,0,0,0-.37.42,1.14,1.14,0,0,0-.17.58,1.52,1.52,0,0,0,.11.55,2.75,2.75,0,0,0,.28.53l.36.52L46,64.1a3,3,0,0,1-.35-.23,3.25,3.25,0,0,1-.32-.29,3.36,3.36,0,0,1-.28-.32,2.29,2.29,0,0,1-.21-.33l-.28.48A3.45,3.45,0,0,0,45.82,64.49Zm1.32-3.28a1.4,1.4,0,0,1-.13-.36.77.77,0,0,1,0-.31,1.07,1.07,0,0,1,.12-.3.85.85,0,0,1,.54-.42,1.28,1.28,0,0,1,.78.07l-1,1.8A4.24,4.24,0,0,1,47.15,61.21Zm.28,1.34a4.26,4.26,0,0,1,.28.45,1.57,1.57,0,0,1,.14.38.88.88,0,0,1,0,.32.83.83,0,0,1-.1.29.81.81,0,0,1-.52.4,1.37,1.37,0,0,1-.81-.09Z"/><path class="cls-1" d="M25.83,77.13a1.11,1.11,0,0,0,.34.23,2,2,0,0,0,.42.13l.46.08.43,1.58-.3.06-.32,0-.31,0-.28-.06.11.39a2.49,2.49,0,0,0,1.18-.07l.16.59L28,80l-.17-.61a1.94,1.94,0,0,0,.45-.25,1.29,1.29,0,0,0,.3-.32,1,1,0,0,0,.14-.36.9.9,0,0,0,0-.39.86.86,0,0,0-.14-.29.84.84,0,0,0-.26-.22,1.93,1.93,0,0,0-.42-.17,4.77,4.77,0,0,0-.62-.12l-.44-1.61a1.89,1.89,0,0,1,.94,0l-.1-.37a1.88,1.88,0,0,0-.4,0,3.23,3.23,0,0,0-.52.09l-.14-.51-.3.08.14.51a1.73,1.73,0,0,0-.42.24,1.32,1.32,0,0,0-.29.32,1,1,0,0,0-.15.38,1,1,0,0,0,0,.41A.89.89,0,0,0,25.83,77.13Zm1.94.59a1.11,1.11,0,0,1,.27.12.64.64,0,0,1,.17.16.61.61,0,0,1,.1.2.59.59,0,0,1-.06.48,1,1,0,0,1-.47.37l-.39-1.42ZM26.1,76.08a.94.94,0,0,1,.44-.37l.4,1.46-.38-.09a1.07,1.07,0,0,1-.26-.12.54.54,0,0,1-.16-.16.77.77,0,0,1-.09-.22A.62.62,0,0,1,26.1,76.08Z"/><path class="cls-1" d="M46.16,33.21l.09-.41L46,32.74l-.09.42a1.42,1.42,0,0,0-.39,0,1,1,0,0,0-.33.12.81.81,0,0,0-.24.22.77.77,0,0,0-.13.3.67.67,0,0,0,0,.35.91.91,0,0,0,.16.29,1.57,1.57,0,0,0,.26.25l.3.23-.27,1.29L45,36.16l-.23-.1-.21-.13-.18-.15-.07.32a2,2,0,0,0,.87.38l-.1.49.25.05.1-.5a1.54,1.54,0,0,0,.41,0,1,1,0,0,0,.33-.12.76.76,0,0,0,.23-.21.74.74,0,0,0,.13-.29.7.7,0,0,0,0-.26.67.67,0,0,0-.11-.26,1.56,1.56,0,0,0-.24-.27,3.88,3.88,0,0,0-.4-.31l.28-1.32a1.51,1.51,0,0,1,.69.32l.06-.3a1.52,1.52,0,0,0-.28-.15A2.5,2.5,0,0,0,46.16,33.21ZM46,35.32a.91.91,0,0,1,.15.18.51.51,0,0,1,.07.18.5.5,0,0,1,0,.18.47.47,0,0,1-.22.32.81.81,0,0,1-.47.09l.24-1.16Zm-.39-.7-.24-.21a.83.83,0,0,1-.14-.18.46.46,0,0,1-.06-.17.63.63,0,0,1,0-.19.5.5,0,0,1,.23-.33.75.75,0,0,1,.45-.1Z"/><path class="cls-1" d="M11.53,20.57l47.81,3.91L60.88,5.69,13.07,1.78ZM14.41,5,16,3.58,57.66,7,59,8.61l-1,12.7-1.61,1.37-41.65-3.4-1.38-1.62Z"/><circle class="cls-1" cx="21.49" cy="11.88" r="1.87"/><circle class="cls-1" cx="50.95" cy="14.34" r="1.87"/><path class="cls-1" d="M37.9,15.54a1.33,1.33,0,0,0,0-.48,1.37,1.37,0,0,0-.24-.45,2.46,2.46,0,0,0-.45-.44,6.83,6.83,0,0,0-.69-.47l-.26,3.16a2.16,2.16,0,0,0,1.22-.41A1.26,1.26,0,0,0,37.9,15.54Z"/><path class="cls-1" d="M36.16,9.2A2,2,0,0,0,35,9.62a1.34,1.34,0,0,0-.49,1,1.68,1.68,0,0,0,0,.51,1.21,1.21,0,0,0,.21.45,2.27,2.27,0,0,0,.43.43,6.27,6.27,0,0,0,.71.47Z"/><path class="cls-1" d="M35.68,19.52a6.41,6.41,0,1,0-5.87-6.91A6.41,6.41,0,0,0,35.68,19.52Zm-2.57-3.57a3.62,3.62,0,0,0,.52.33,4.86,4.86,0,0,0,.61.27,5.21,5.21,0,0,0,.65.19,4.8,4.8,0,0,0,.65.1l.29-3.51L35,12.82a4.3,4.3,0,0,1-.76-.57,2.39,2.39,0,0,1-.52-.71,1.8,1.8,0,0,1-.15-.94,2.05,2.05,0,0,1,.26-.85,2.18,2.18,0,0,1,.58-.66,2.81,2.81,0,0,1,.83-.44,3.76,3.76,0,0,1,1-.18l.09-1.15.67.06L36.9,8.51a6.72,6.72,0,0,1,1.13.2,4.19,4.19,0,0,1,.81.31l-.07.83a4.08,4.08,0,0,0-1.93-.62l-.29,3.6a10.41,10.41,0,0,1,1.16.7,4.11,4.11,0,0,1,.74.65,1.81,1.81,0,0,1,.37.65,1.86,1.86,0,0,1,.07.7,2,2,0,0,1-.24.81,2,2,0,0,1-.55.63,2.76,2.76,0,0,1-.84.42,4.17,4.17,0,0,1-1.09.18L36,18.93l-.67-.06.11-1.32A5.36,5.36,0,0,1,33,16.82Z"/><path class="cls-1" d="M69,56.71l6.66-33.59-13.2-2.62L55.81,54.09ZM63.13,22.89,64.39,22l8.93,1.77.85,1.26-5.8,29.25-1.27.85L58.17,53.4l-.84-1.26Z"/><circle class="cls-1" cx="67.83" cy="28.27" r="1.34"/><circle class="cls-1" cx="63.68" cy="48.97" r="1.34"/><path class="cls-1" d="M63.9,39.62a.93.93,0,0,0,.35,0,1,1,0,0,0,.34-.13,1.74,1.74,0,0,0,.35-.28,4.83,4.83,0,0,0,.39-.46l-2.22-.44a1.54,1.54,0,0,0,.19.9A.9.9,0,0,0,63.9,39.62Z"/><path class="cls-1" d="M68.33,38a1,1,0,0,0-.64-.43,1.2,1.2,0,0,0-.36,0,.86.86,0,0,0-.33.11,1.58,1.58,0,0,0-.34.27,4.38,4.38,0,0,0-.39.47l2.28.45A1.45,1.45,0,0,0,68.33,38Z"/><path class="cls-1" d="M64.85,43.1a4.58,4.58,0,1,0-3.6-5.38A4.58,4.58,0,0,0,64.85,43.1Zm-3.11-5.54.93.18a3.84,3.84,0,0,1,.71-1.67l.61.12a2.55,2.55,0,0,0-.28.34,3.53,3.53,0,0,0-.24.41,3.74,3.74,0,0,0-.19.45,3.33,3.33,0,0,0-.12.45l2.47.49.43-.57a3.05,3.05,0,0,1,.46-.49,1.72,1.72,0,0,1,.55-.31,1.28,1.28,0,0,1,.68,0,1.44,1.44,0,0,1,.58.25,1.57,1.57,0,0,1,.42.46,2,2,0,0,1,.24.63A2.7,2.7,0,0,1,69,39l.81.16-.09.47L69,39.48a4.78,4.78,0,0,1-.23.78,3,3,0,0,1-.28.55l-.58-.12a2.92,2.92,0,0,0,.6-1.32l-2.53-.5a7.68,7.68,0,0,1-.59.77,2.94,2.94,0,0,1-.52.47,1.31,1.31,0,0,1-.49.21,1.33,1.33,0,0,1-.5,0,1.39,1.39,0,0,1-.55-.24,1.49,1.49,0,0,1-.4-.44,2,2,0,0,1-.23-.63,3,3,0,0,1,0-.79l-1-.19Z"/><path class="cls-1" d="M71.38,12.36l18.5-5.09L87.88,0,69.38,5.09ZM86.85.93l.74.42,1.35,4.91L88.52,7,72.41,11.43,71.67,11,70.32,6.1l.42-.74Z"/><circle class="cls-1" cx="73.93" cy="7.73" r="0.75"/><circle class="cls-1" cx="85.33" cy="4.61" r="0.75"/><path class="cls-1" d="M80.55,7.26a.51.51,0,0,0,.05-.41.55.55,0,0,0-.08-.18.57.57,0,0,0-.15-.14,1,1,0,0,0-.23-.1l-.32-.08.34,1.22A.87.87,0,0,0,80.55,7.26Z"/><path class="cls-1" d="M78.73,5.64a.49.49,0,0,0,.14.14.92.92,0,0,0,.22.1l.33.08-.35-1.26A.81.81,0,0,0,78.7,5a.53.53,0,0,0-.05.43A.69.69,0,0,0,78.73,5.64Z"/><path class="cls-1" d="M80.31,8.65a2.56,2.56,0,1,0-3.15-1.79A2.56,2.56,0,0,0,80.31,8.65ZM78.39,4.92a1.12,1.12,0,0,1,.25-.28A1.49,1.49,0,0,1,79,4.43L78.88,4l.26-.07.12.44a2.66,2.66,0,0,1,.45-.08,1.69,1.69,0,0,1,.35,0l.09.32a1.63,1.63,0,0,0-.81,0L79.72,6a4.13,4.13,0,0,1,.53.1,1.63,1.63,0,0,1,.36.14.74.74,0,0,1,.23.19.73.73,0,0,1,.12.25A.79.79,0,0,1,81,7a.83.83,0,0,1-.12.31,1.1,1.1,0,0,1-.26.27,1.67,1.67,0,0,1-.39.22l.14.53-.26.07L80,7.94a2.15,2.15,0,0,1-1,.06l-.09-.34.24.05.26,0,.27,0,.26-.05-.37-1.36-.39-.07a1.76,1.76,0,0,1-.36-.11,1,1,0,0,1-.29-.2.72.72,0,0,1-.18-.33.83.83,0,0,1,0-.35A.91.91,0,0,1,78.39,4.92Z"/><path class="cls-1" d="M76.86,43.25l4,5.25L94.22,38.31l-4-5.25ZM93.13,37.8l-.1.73L81.39,47.41l-.74-.1L78,43.76,78,43l11.63-8.87.74.1Z"/><circle class="cls-1" cx="81.41" cy="43.9" r="0.66"/><circle class="cls-1" cx="89.66" cy="37.64" r="0.66"/><path class="cls-1" d="M86.42,40.89a.49.49,0,0,0-.17-.06H86l-.29,0,.67.88a.75.75,0,0,0,.22-.39.48.48,0,0,0-.22-.46Z"/><path class="cls-1" d="M84.4,40.14a.47.47,0,0,0,.1.37.6.6,0,0,0,.13.13.42.42,0,0,0,.16.07.77.77,0,0,0,.21,0l.29,0-.69-.91A.72.72,0,0,0,84.4,40.14Z"/><path class="cls-1" d="M84.18,39a2.24,2.24,0,1,0,3.15.42A2.24,2.24,0,0,0,84.18,39Zm2.63,2.65a1.43,1.43,0,0,1-.24.3l.29.38-.19.14-.28-.37a1.88,1.88,0,0,1-.81.38l-.19-.24.21,0,.22-.07L86,42l.19-.13-.75-1-.34.07a1.47,1.47,0,0,1-.33,0,.86.86,0,0,1-.3-.06.63.63,0,0,1-.26-.21.7.7,0,0,1-.13-.28.77.77,0,0,1,0-.31,1,1,0,0,1,.11-.31,1.27,1.27,0,0,1,.22-.29l-.24-.32.19-.14.24.31A2.32,2.32,0,0,1,85,39.2a1.38,1.38,0,0,1,.28-.11l.18.23a1.43,1.43,0,0,0-.65.29l.77,1a3.65,3.65,0,0,1,.47-.09,1.42,1.42,0,0,1,.34,0,.6.6,0,0,1,.43.25.7.7,0,0,1,.13.27.71.71,0,0,1,0,.29A1,1,0,0,1,86.81,41.64Z"/><path class="cls-1" d="M17.6,84.59l21.47-5.91-2.32-8.44L15.28,76.15Zm18-13.27.86.49L38,77.52l-.49.85L18.8,83.52,17.94,83l-1.57-5.71.49-.86Z"/><circle class="cls-1" cx="20.56" cy="79.21" r="0.87"/><circle class="cls-1" cx="33.8" cy="75.6" r="0.87"/><path class="cls-1" d="M28.24,78.67a.59.59,0,0,0,.06-.48.62.62,0,0,0-.1-.2.67.67,0,0,0-.17-.16,1.15,1.15,0,0,0-.27-.12l-.38-.09L27.78,79A1,1,0,0,0,28.24,78.67Z"/><path class="cls-1" d="M26.13,76.79a.58.58,0,0,0,.16.16,1.07,1.07,0,0,0,.26.12l.38.09-.4-1.46a.93.93,0,0,0-.44.37.63.63,0,0,0-.06.5A.78.78,0,0,0,26.13,76.79Z"/><path class="cls-1" d="M28,80.29a3,3,0,1,0-3.66-2.08A3,3,0,0,0,28,80.29Zm-2.23-4.34a1.29,1.29,0,0,1,.29-.32,1.77,1.77,0,0,1,.42-.24l-.14-.51.3-.08.14.51a3,3,0,0,1,.52-.09,1.88,1.88,0,0,1,.4,0l.1.37a1.89,1.89,0,0,0-.94,0l.44,1.61a4.8,4.8,0,0,1,.62.12,1.88,1.88,0,0,1,.42.17.8.8,0,0,1,.41.52.93.93,0,0,1,0,.39,1,1,0,0,1-.14.36,1.29,1.29,0,0,1-.3.32,1.94,1.94,0,0,1-.45.25L28,80l-.3.08-.16-.59a2.49,2.49,0,0,1-1.18.07l-.11-.39.28.06.31,0,.32,0,.3-.06L27,77.56l-.46-.08a2,2,0,0,1-.42-.13,1.12,1.12,0,0,1-.34-.23.83.83,0,0,1-.21-.39.93.93,0,0,1,0-.41A1,1,0,0,1,25.73,75.95Z"/><path class="cls-1" d="M23.07,60.3.92,58,0,66.66,22.15,69ZM20.8,68.14,1.5,66.1l-.62-.77.62-5.89.77-.62,19.29,2,.63.77-.62,5.89Z"/><circle class="cls-1" cx="4.72" cy="62.74" r="0.87"/><circle class="cls-1" cx="18.36" cy="64.21" r="0.87"/><path class="cls-1" d="M11.5,65.21a1,1,0,0,0,.57-.18.59.59,0,0,0,.23-.42.62.62,0,0,0,0-.22.65.65,0,0,0-.1-.21A1.15,1.15,0,0,0,12,64a3.05,3.05,0,0,0-.32-.22Z"/><path class="cls-1" d="M11,61.84a.62.62,0,0,0-.24.44.77.77,0,0,0,0,.24.56.56,0,0,0,.09.21,1,1,0,0,0,.2.21,2.94,2.94,0,0,0,.32.22l.16-1.5A.93.93,0,0,0,11,61.84Z"/><path class="cls-1" d="M11.85,60.52a3,3,0,1,0,2.65,3.27A3,3,0,0,0,11.85,60.52ZM12.76,62a1.88,1.88,0,0,0-.89-.31l-.18,1.67a4.68,4.68,0,0,1,.53.34,1.86,1.86,0,0,1,.33.31.84.84,0,0,1,.16.3.86.86,0,0,1,0,.33.91.91,0,0,1-.12.37,1,1,0,0,1-.26.29,1.28,1.28,0,0,1-.39.19,2,2,0,0,1-.51.07l-.07.63-.31,0,.06-.61A2.5,2.5,0,0,1,10,65.16l0-.4a1.59,1.59,0,0,0,.24.16l.28.13.3.1.3.05.17-1.63-.4-.25a2,2,0,0,1-.35-.27,1.12,1.12,0,0,1-.23-.34.84.84,0,0,1-.06-.44,1,1,0,0,1,.13-.39,1,1,0,0,1,.27-.3,1.31,1.31,0,0,1,.39-.19,1.74,1.74,0,0,1,.48-.07l.06-.53.31,0-.06.52a3,3,0,0,1,.52.11,1.92,1.92,0,0,1,.37.15Z"/><path class="cls-1" d="M50,78.07,48.55,85l17.51,3.66,1.44-6.89Zm15.73,9.31-.66.43L49.8,84.63,49.37,84l1-4.65.66-.43,15.25,3.19.44.67Z"/><circle class="cls-1" cx="52.64" cy="82.2" r="0.7"/><circle class="cls-1" cx="63.43" cy="84.48" r="0.7"/><path class="cls-1" d="M57.86,84.73a.81.81,0,0,0,.47-.09.47.47,0,0,0,.22-.32.48.48,0,0,0,0-.18.51.51,0,0,0-.07-.18.92.92,0,0,0-.15-.18l-.24-.2Z"/><path class="cls-1" d="M57.52,82.33a.63.63,0,0,0,0,.19.46.46,0,0,0,.06.18.85.85,0,0,0,.14.18l.24.21.25-1.19a.75.75,0,0,0-.45.1A.5.5,0,0,0,57.52,82.33Z"/><path class="cls-1" d="M58.52,81a2.39,2.39,0,1,0,1.85,2.83A2.39,2.39,0,0,0,58.52,81Zm.61,1.25a1.52,1.52,0,0,0-.69-.32l-.28,1.32a3.88,3.88,0,0,1,.4.31,1.55,1.55,0,0,1,.24.27.68.68,0,0,1,.11.26.7.7,0,0,1,0,.26.74.74,0,0,1-.13.29.79.79,0,0,1-.23.21,1,1,0,0,1-.33.12,1.55,1.55,0,0,1-.41,0l-.1.5-.25-.05.1-.49a2,2,0,0,1-.87-.38l.07-.32.18.15.21.13.23.1.24.07.27-1.29-.3-.23a1.57,1.57,0,0,1-.26-.25.91.91,0,0,1-.16-.29.67.67,0,0,1,0-.35.76.76,0,0,1,.13-.3.82.82,0,0,1,.24-.22,1.06,1.06,0,0,1,.33-.12,1.42,1.42,0,0,1,.39,0l.09-.42.25.05-.09.41a2.52,2.52,0,0,1,.41.13,1.56,1.56,0,0,1,.28.15Z"/><path class="cls-1" d="M55.17,33.28,37.66,29.61,36.22,36.5l17.51,3.66Zm-2.45,6.08L37.46,36.17,37,35.5l1-4.65.66-.43,15.25,3.19.44.67-1,4.65Z"/><circle class="cls-1" cx="40.3" cy="33.74" r="0.7"/><circle class="cls-1" cx="51.09" cy="36.02" r="0.7"/><path class="cls-1" d="M45.52,36.27a.81.81,0,0,0,.47-.09.47.47,0,0,0,.22-.32.48.48,0,0,0,0-.18.5.5,0,0,0-.07-.18.92.92,0,0,0-.15-.18l-.24-.2Z"/><path class="cls-1" d="M45.19,33.87a.63.63,0,0,0,0,.19.44.44,0,0,0,.06.17.85.85,0,0,0,.14.18l.24.21.25-1.19a.75.75,0,0,0-.45.1A.5.5,0,0,0,45.19,33.87Z"/><path class="cls-1" d="M46.18,32.55A2.39,2.39,0,1,0,48,35.38,2.39,2.39,0,0,0,46.18,32.55Zm.61,1.24a1.52,1.52,0,0,0-.69-.32l-.28,1.32a3.88,3.88,0,0,1,.4.31,1.55,1.55,0,0,1,.24.27.68.68,0,0,1,.11.26.7.7,0,0,1,0,.26.74.74,0,0,1-.13.29.79.79,0,0,1-.23.21,1,1,0,0,1-.33.12,1.54,1.54,0,0,1-.41,0l-.1.5L45.12,37l.1-.49a2,2,0,0,1-.87-.38l.07-.32.18.15.21.13.23.1.24.07.27-1.29-.3-.23a1.57,1.57,0,0,1-.26-.25.91.91,0,0,1-.16-.29.67.67,0,0,1,0-.35.77.77,0,0,1,.13-.3.82.82,0,0,1,.24-.22,1.06,1.06,0,0,1,.33-.12,1.42,1.42,0,0,1,.39,0l.09-.42.25.05-.09.41a2.52,2.52,0,0,1,.41.13,1.56,1.56,0,0,1,.28.15Z"/><path class="cls-1" d="M84,63.93l-7.36-3.56L67.58,79.09l7.36,3.56ZM74,81.45l-5-2.41-.3-.87,7.89-16.3.88-.31,5,2.41.3.87-7.89,16.3Z"/><circle class="cls-1" cx="72.98" cy="77.26" r="0.81"/><circle class="cls-1" cx="78.59" cy="65.74" r="0.81"/><path class="cls-1" d="M77,71.2a.57.57,0,0,0-.2-.06.58.58,0,0,0-.22,0,1.07,1.07,0,0,0-.25.11l-.3.21,1.24.6a.93.93,0,0,0,0-.56A.55.55,0,0,0,77,71.2Z"/><path class="cls-1" d="M74.18,71.44a.58.58,0,0,0,.31.35.74.74,0,0,0,.21.07.53.53,0,0,0,.21,0,1,1,0,0,0,.24-.11,2.81,2.81,0,0,0,.3-.21l-1.27-.61A.87.87,0,0,0,74.18,71.44Z"/><path class="cls-1" d="M77,69a2.78,2.78,0,1,0,1.29,3.71A2.78,2.78,0,0,0,77,69Zm1,3.74-.52-.25a2.33,2.33,0,0,1-.68.87l-.34-.17.21-.16.2-.2a2.18,2.18,0,0,0,.32-.48l-1.37-.67-.34.27a1.91,1.91,0,0,1-.35.22,1,1,0,0,1-.37.1.78.78,0,0,1-.4-.09A.87.87,0,0,1,74,72a.94.94,0,0,1-.18-.34,1.24,1.24,0,0,1,0-.4,1.68,1.68,0,0,1,.09-.44l-.45-.22.13-.26.44.21a2.9,2.9,0,0,1,.26-.43,1.76,1.76,0,0,1,.25-.28l.32.16a1.76,1.76,0,0,0-.55.68l1.41.68a4.31,4.31,0,0,1,.46-.36,1.74,1.74,0,0,1,.38-.2.8.8,0,0,1,.32,0,.81.81,0,0,1,.29.08.85.85,0,0,1,.29.22.88.88,0,0,1,.17.32,1.2,1.2,0,0,1,0,.4,1.82,1.82,0,0,1-.1.47l.53.26Z"/><path class="cls-1" d="M57.69,74.86l5.91-10.4-26.45-15-5.91,10.4ZM38.38,51.25l23,13.09.36,1.31-4,7L56.48,73l-23-13.1-.36-1.3,4-7Z"/><circle class="cls-1" cx="39.3" cy="57.49" r="1.19"/><circle class="cls-1" cx="55.58" cy="66.79" r="1.19"/><path class="cls-1" d="M47.24,64.39a.81.81,0,0,0,.52-.4.83.83,0,0,0,.1-.29.88.88,0,0,0,0-.32A1.58,1.58,0,0,0,47.7,63a4.26,4.26,0,0,0-.28-.45l-1,1.75A1.38,1.38,0,0,0,47.24,64.39Z"/><path class="cls-1" d="M48.45,59.87a1.28,1.28,0,0,0-.78-.07.85.85,0,0,0-.54.42,1.08,1.08,0,0,0-.12.3.77.77,0,0,0,0,.31,1.4,1.4,0,0,0,.13.36,3.73,3.73,0,0,0,.28.46Z"/><path class="cls-1" d="M45.41,65.68a4.07,4.07,0,1,0-1.53-5.54A4.06,4.06,0,0,0,45.41,65.68Zm-.52-2.74a2.19,2.19,0,0,0,.21.33,3.11,3.11,0,0,0,.28.32,3.25,3.25,0,0,0,.32.29,3,3,0,0,0,.35.23l1.1-1.94-.36-.52a2.69,2.69,0,0,1-.28-.53,1.53,1.53,0,0,1-.11-.55,1.14,1.14,0,0,1,.17-.58,1.28,1.28,0,0,1,.38-.42,1.4,1.4,0,0,1,.51-.23,1.78,1.78,0,0,1,.6,0,2.4,2.4,0,0,1,.64.17l.36-.63.37.21-.35.62a4.3,4.3,0,0,1,.6.42,2.61,2.61,0,0,1,.38.39l-.26.46a2.58,2.58,0,0,0-.94-.87l-1.13,2a6.4,6.4,0,0,1,.48.71,2.57,2.57,0,0,1,.25.57,1.16,1.16,0,0,1,0,.47,1.19,1.19,0,0,1-.15.42,1.25,1.25,0,0,1-.35.4,1.3,1.3,0,0,1-.49.22,1.75,1.75,0,0,1-.6,0,2.62,2.62,0,0,1-.68-.19l-.43.75-.37-.21.42-.73a3.41,3.41,0,0,1-1.21-1.07Z"/><path class="cls-1" d="M32.94,42.23l-4.68-11L.26,43.12l4.68,11Zm-30.49,1L26.84,32.9l1.25.51,3.16,7.44-.51,1.25L6.36,52.45l-1.26-.51L1.95,44.5Z"/><circle class="cls-1" cx="25.23" cy="39.04" r="1.19"/><circle class="cls-1" cx="7.96" cy="46.34" r="1.19"/><path class="cls-1" d="M15.1,42.08a.88.88,0,0,0,.26.18,1.55,1.55,0,0,0,.38.12,4.14,4.14,0,0,0,.53.06l-.79-1.85a1.37,1.37,0,0,0-.56.59.8.8,0,0,0,0,.65A.84.84,0,0,0,15.1,42.08Z"/><path class="cls-1" d="M18.3,44.3a.85.85,0,0,0,0-.69,1.08,1.08,0,0,0-.17-.28.79.79,0,0,0-.25-.19,1.42,1.42,0,0,0-.37-.12A3.93,3.93,0,0,0,17,43l.81,1.9A1.28,1.28,0,0,0,18.3,44.3Z"/><path class="cls-1" d="M18.19,46.42a4.07,4.07,0,1,0-5.33-2.15A4.06,4.06,0,0,0,18.19,46.42Zm-3.78-5.34a1.74,1.74,0,0,1,.34-.49,2.65,2.65,0,0,1,.56-.43l-.34-.8.39-.17.33.78a3.4,3.4,0,0,1,1.58-.31l.22.51a2.37,2.37,0,0,0-.39,0l-.42,0-.42.08a2.91,2.91,0,0,0-.4.13l.87,2.06.63,0a2.73,2.73,0,0,1,.59.1,1.51,1.51,0,0,1,.5.25,1.13,1.13,0,0,1,.36.48,1.29,1.29,0,0,1,.11.55,1.4,1.4,0,0,1-.13.54,1.76,1.76,0,0,1-.34.49,2.37,2.37,0,0,1-.52.41l.28.67-.39.17-.28-.66a4.28,4.28,0,0,1-.69.22,2.58,2.58,0,0,1-.55.06l-.21-.49a2.58,2.58,0,0,0,1.27-.22l-.89-2.11a6.52,6.52,0,0,1-.86-.05,2.58,2.58,0,0,1-.6-.15,1.16,1.16,0,0,1-.4-.25,1.19,1.19,0,0,1-.25-.37,1.25,1.25,0,0,1-.1-.53A1.3,1.3,0,0,1,14.41,41.08Z"/></svg>