<svg id="round-separator-img-mlb" data-name="" class="round-separator-img round-separator-img-mlb " xmlns="http://www.w3.org/2000/svg" viewBox="0 0 402.91 66.87"><defs><style>.cls-1{fill:#ed1c24;}.cls-2{fill:#fff;}.cls-3{fill:#21425b;}.cls-4{fill:#f9f9f9;}</style></defs><title>usa-flag-separator100Res</title><path class="cls-1" d="M120.75,3A54.59,54.59,0,0,1,63.62,55.1C34.15,53.82,11.13,30.58,11.19,0H0C0,37.07,27.81,65.27,63.45,66.81,100,68.4,131,39.75,132.58,3.15c0-1,.06-1.3.06-3.15H120.8C120.8.93,120.78,2.17,120.75,3Z"/><path class="cls-2" d="M63.62,55.37A55,55,0,0,0,120.75,2.72c0-.82,0-1.79,0-2.72H107.59c0,.93,0,1.94,0,2.64a41,41,0,0,1-43,39.14C42.31,40.82,24.94,23.17,25.13,0H11.19C11.13,30.58,34.15,54.09,63.62,55.37Z"/><path class="cls-3" d="M64.57,42a41.45,41.45,0,0,0,43-39.67c0-.71,0-1.45,0-2.38H95.25c0,.93,0,1.73,0,2.33A28.89,28.89,0,0,1,64.89,29.88C49.07,29.19,36.77,16.68,37.06,0H25.13C24.94,23.17,42.31,41.08,64.57,42ZM98,5.88l2.6,1.06,2.35-1.54-.21,2.8L104.9,10l-2.73.67-1,2.63L99.7,10.87l-2.81-.13,1.81-2.15ZM92.33,22.1l.53-2.76,1.87,2.09,2.79-.35L96.1,23.51l1.2,2.54-2.75-.59-2,1.92-.28-2.8-2.46-1.35ZM80.2,31.43l1.68-2.25.76,2.7,2.66.91L83,34.35l0,2.81-2.21-1.74L78,36.25l1-2.63-1.62-2.3Zm-18,1.93,2.48,1.33,2.5-1.28-.5,2.76,2,2-2.78.38L64.62,41,63.4,38.5l-2.78-.43,2-1.94ZM47.7,31.2l.81-2.69,1.64,2.28L53,30.73,51.31,33l.93,2.65-2.67-.88-2.24,1.7V33.66L45,32.05Zm-10.09-10,1.91-2.07L40,21.87l2.55,1.18-2.49,1.31-.33,2.79-2-2L35,25.74l1.24-2.52-1.37-2.45ZM31.91,6.62l2.62-1-.79,2.7,1.78,2.18-2.81.09-1.52,2.36-.95-2.65-2.72-.72,2.22-1.72L29.59,5Z"/><path class="cls-4" d="M64.89,30.14A29.32,29.32,0,0,0,95.23,2.06c0-.6,0-1.13,0-2.06H84.7c0,.93,0,1.15,0,1.46A18.22,18.22,0,0,1,65.46,18.82C55.51,18.38,47.75,11.12,47.83,0H37.06C36.77,16.68,49.07,29.46,64.89,30.14Z"/><polygon class="cls-2" points="27.52 9.57 30.24 10.29 31.19 12.93 32.71 10.57 35.52 10.48 33.74 8.31 34.53 5.61 31.91 6.62 29.59 5.04 29.75 7.85 27.52 9.57"/><polygon class="cls-2" points="36.2 23.22 34.96 25.74 37.72 25.19 39.73 27.15 40.06 24.36 42.55 23.05 40 21.87 39.52 19.1 37.61 21.17 34.83 20.76 36.2 23.22"/><polygon class="cls-2" points="47.33 36.47 49.56 34.77 52.23 35.65 51.31 32.99 52.97 30.73 50.16 30.79 48.52 28.51 47.7 31.2 45.03 32.05 47.34 33.66 47.33 36.47"/><polygon class="cls-2" points="63.4 38.51 64.62 41.03 65.89 38.53 68.67 38.15 66.68 36.17 67.18 33.4 64.68 34.69 62.2 33.36 62.66 36.13 60.63 38.08 63.4 38.51"/><polygon class="cls-2" points="78.04 36.26 80.73 35.42 82.94 37.16 82.97 34.35 85.31 32.79 82.65 31.89 81.89 29.18 80.2 31.43 77.4 31.32 79.02 33.62 78.04 36.26"/><polygon class="cls-2" points="92.5 27.38 94.55 25.46 97.3 26.05 96.1 23.51 97.52 21.09 94.73 21.44 92.86 19.34 92.33 22.1 89.76 23.24 92.22 24.59 92.5 27.38"/><polygon class="cls-2" points="99.7 10.87 101.17 13.26 102.17 10.63 104.9 9.96 102.71 8.2 102.92 5.4 100.57 6.94 97.97 5.88 98.71 8.59 96.89 10.74 99.7 10.87"/><path class="cls-1" d="M65.46,19.09A18.66,18.66,0,0,0,84.68,1.19c0-.31,0-.27,0-1.19H47.83C47.75,11.12,55.51,18.65,65.46,19.09Z"/><path class="cls-1" d="M255.88,3A54.59,54.59,0,0,1,198.75,55.1C169.28,53.82,146.26,30.58,146.33,0H135.13c0,37.07,27.81,65.27,63.45,66.81,36.59,1.59,67.55-27.06,69.13-63.66,0-1,.06-1.3.06-3.15H255.93C255.93.93,255.92,2.17,255.88,3Z"/><path class="cls-2" d="M198.75,55.37A55,55,0,0,0,255.88,2.72c0-.82,0-1.79,0-2.72H242.72c0,.93,0,1.94,0,2.64a41,41,0,0,1-43,39.14c-22.26-1-39.63-18.61-39.44-41.78H146.33C146.26,30.58,169.28,54.09,198.75,55.37Z"/><path class="cls-3" d="M199.71,42a41.45,41.45,0,0,0,43-39.67c0-.7,0-1.45,0-2.38H230.38c0,.93,0,1.73,0,2.33A28.89,28.89,0,0,1,200,29.88C184.21,29.19,171.9,16.68,172.19,0H160.27C160.08,23.17,177.45,41.08,199.71,42ZM233.1,5.88l2.6,1.06,2.35-1.54-.21,2.8L240,10l-2.73.67-1,2.63-1.48-2.39L232,10.74l1.82-2.15ZM227.47,22.1l.52-2.76,1.87,2.09,2.79-.35-1.42,2.43,1.2,2.54-2.75-.59-2,1.92-.28-2.8-2.46-1.35Zm-12.13,9.33L217,29.18l.76,2.7,2.66.91-2.34,1.56,0,2.81-2.21-1.74-2.69.83,1-2.63-1.62-2.3Zm-18,1.93,2.48,1.33,2.5-1.28-.5,2.76,2,2-2.79.38L199.76,41l-1.22-2.53-2.78-.43,2-1.94Zm-14.5-2.16.81-2.69,1.64,2.28,2.81-.06L186.44,33l.93,2.65-2.67-.88-2.24,1.7V33.66l-2.31-1.6Zm-10.09-10,1.91-2.06.48,2.77,2.55,1.18-2.49,1.31-.33,2.79-2-2-2.76.55,1.24-2.52L170,20.76ZM167,6.62l2.62-1-.79,2.7,1.78,2.18-2.81.09-1.52,2.36-.95-2.65-2.72-.72,2.22-1.72L164.72,5Z"/><path class="cls-4" d="M200,30.14A29.32,29.32,0,0,0,230.36,2.06c0-.6,0-1.13,0-2.06H219.84c0,.93,0,1.15,0,1.46A18.22,18.22,0,0,1,200.6,18.82C190.65,18.38,182.89,11.12,183,0H172.19C171.9,16.68,184.21,29.46,200,30.14Z"/><polygon class="cls-2" points="162.66 9.57 165.38 10.29 166.32 12.93 167.84 10.57 170.65 10.48 168.88 8.31 169.66 5.61 167.04 6.62 164.72 5.04 164.88 7.85 162.66 9.57"/><polygon class="cls-2" points="171.34 23.22 170.1 25.74 172.85 25.19 174.87 27.15 175.2 24.36 177.68 23.05 175.13 21.87 174.66 19.1 172.75 21.17 169.97 20.76 171.34 23.22"/><polygon class="cls-2" points="182.46 36.47 184.7 34.77 187.37 35.65 186.44 32.99 188.1 30.73 185.29 30.79 183.65 28.51 182.84 31.2 180.16 32.05 182.47 33.66 182.46 36.47"/><polygon class="cls-2" points="198.54 38.51 199.76 41.03 201.02 38.53 203.81 38.15 201.81 36.17 202.31 33.4 199.81 34.69 197.34 33.36 197.79 36.13 195.76 38.08 198.54 38.51"/><polygon class="cls-2" points="213.18 36.26 215.86 35.42 218.07 37.16 218.11 34.35 220.45 32.79 217.78 31.89 217.02 29.18 215.34 31.43 212.53 31.32 214.15 33.62 213.18 36.26"/><polygon class="cls-2" points="227.64 27.38 229.69 25.46 232.43 26.05 231.24 23.51 232.65 21.09 229.86 21.44 227.99 19.34 227.47 22.1 224.89 23.24 227.36 24.59 227.64 27.38"/><polygon class="cls-2" points="234.83 10.87 236.31 13.26 237.31 10.63 240.04 9.96 237.84 8.2 238.05 5.4 235.7 6.94 233.1 5.88 233.84 8.59 232.03 10.74 234.83 10.87"/><path class="cls-1" d="M200.6,19.09A18.66,18.66,0,0,0,219.82,1.19c0-.31,0-.27,0-1.19H183C182.89,11.12,190.65,18.65,200.6,19.09Z"/><path class="cls-1" d="M391,3A54.59,54.59,0,0,1,333.89,55.1C304.42,53.82,281.4,30.58,281.46,0H270.27c0,37.07,27.81,65.27,63.45,66.81,36.6,1.59,67.55-27.06,69.13-63.66,0-1,.06-1.3.06-3.15H391.07C391.07.93,391.05,2.17,391,3Z"/><path class="cls-2" d="M333.89,55.37A55,55,0,0,0,391,2.72c0-.82,0-1.79,0-2.72H377.86c0,.93,0,1.94,0,2.64a41,41,0,0,1-43,39.14c-22.26-1-39.63-18.61-39.44-41.78H281.46C281.4,30.58,304.42,54.09,333.89,55.37Z"/><path class="cls-3" d="M334.84,42a41.45,41.45,0,0,0,43-39.67c0-.7,0-1.45,0-2.38H365.52c0,.93,0,1.73,0,2.33a28.89,28.89,0,0,1-30.34,27.55C319.34,29.19,307,16.68,307.32,0H295.4C295.21,23.17,312.58,41.08,334.84,42Zm33.4-36.17,2.6,1.06,2.35-1.54L373,8.21,375.17,10l-2.73.67-1,2.63L370,10.87l-2.81-.13L369,8.59ZM362.6,22.1l.53-2.76L365,21.44l2.79-.35-1.42,2.43,1.2,2.54-2.75-.59-2,1.92-.28-2.8L360,23.24Zm-12.13,9.33,1.68-2.25.76,2.7,2.66.91-2.34,1.56,0,2.81L351,35.42l-2.69.83,1-2.63-1.62-2.3Zm-18,1.93,2.48,1.33,2.5-1.28-.5,2.76,2,2-2.78.38L334.89,41l-1.22-2.53-2.78-.43,2-1.94ZM318,31.2l.81-2.69,1.64,2.28,2.81-.06L321.57,33l.93,2.65-2.67-.88-2.24,1.7V33.66l-2.31-1.6Zm-10.09-10,1.91-2.06.48,2.77,2.55,1.18-2.49,1.31L310,27.15l-2-2-2.76.55,1.24-2.52-1.37-2.45Zm-5.7-14.54,2.62-1L304,8.31l1.78,2.18-2.81.09-1.52,2.36-.95-2.65-2.72-.72L300,7.85,299.85,5Z"/><path class="cls-4" d="M335.16,30.14A29.33,29.33,0,0,0,365.5,2.06c0-.6,0-1.13,0-2.06H355c0,.93,0,1.15,0,1.46a18.22,18.22,0,0,1-19.22,17.36C325.78,18.38,318,11.12,318.09,0H307.32C307,16.68,319.34,29.46,335.16,30.14Z"/><polygon class="cls-2" points="297.79 9.57 300.51 10.29 301.46 12.93 302.98 10.57 305.79 10.48 304.01 8.31 304.8 5.61 302.18 6.62 299.85 5.04 300.01 7.85 297.79 9.57"/><polygon class="cls-2" points="306.47 23.22 305.23 25.74 307.99 25.19 310 27.15 310.33 24.36 312.81 23.05 310.26 21.87 309.79 19.1 307.88 21.17 305.1 20.76 306.47 23.22"/><polygon class="cls-2" points="317.59 36.47 319.83 34.77 322.5 35.65 321.57 32.99 323.23 30.73 320.43 30.79 318.78 28.51 317.97 31.2 315.3 32.05 317.61 33.66 317.59 36.47"/><polygon class="cls-2" points="333.67 38.51 334.89 41.03 336.16 38.53 338.94 38.15 336.95 36.17 337.45 33.4 334.95 34.69 332.47 33.36 332.92 36.13 330.89 38.08 333.67 38.51"/><polygon class="cls-2" points="348.31 36.26 351 35.42 353.2 37.16 353.24 34.35 355.58 32.79 352.92 31.89 352.16 29.18 350.47 31.43 347.66 31.32 349.29 33.62 348.31 36.26"/><polygon class="cls-2" points="362.77 27.38 364.82 25.46 367.57 26.05 366.37 23.51 367.79 21.09 365 21.44 363.13 19.34 362.6 22.1 360.03 23.24 362.49 24.59 362.77 27.38"/><polygon class="cls-2" points="369.96 10.87 371.44 13.26 372.44 10.63 375.17 9.96 372.98 8.21 373.19 5.4 370.84 6.94 368.24 5.88 368.97 8.59 367.16 10.74 369.96 10.87"/><path class="cls-1" d="M335.73,19.09A18.66,18.66,0,0,0,355,1.19c0-.31,0-.27,0-1.19H318.09C318,11.12,325.78,18.65,335.73,19.09Z"/></svg>