<svg xmlns="http://www.w3.org/2000/svg" viewBox="0 0 792 612"><defs><style>.cls-1{fill:#d1d3d4;}.cls-2{fill:#17124a;}.cls-3,.cls-7,.cls-8,.cls-9{fill:#ed1c24;}.cls-4,.cls-6{fill:#fff;}.cls-5{fill:#ccc;}.cls-6,.cls-7{fill-rule:evenodd;}.cls-8{font-size:72px;}.cls-8,.cls-9{font-family:MyriadPro-Regular, Myriad Pro;}.cls-9{font-size:51px;}</style></defs><title>mlb_2018_logo100Res</title><g id="Layer_6" data-name="Layer 6"><path class="cls-1" d="M754.58,183.53c-14.16-.42-28.5-.65-42.68-.7-4.68-12.13-9.51-24.22-14.39-36l-4.62-11.17a51.78,51.78,0,0,0,11.47-17.15c6.84-17.39-5.09-42.63-27.15-57.48a38.51,38.51,0,0,0-21.83-6.77c-16.56,0-29,10.47-32.56,13.86L586.14,99.49a127.24,127.24,0,0,0-13.78-15.67l-1.75-1.64-8.77-2.09A412.37,412.37,0,0,0,532.92,40l-7.75-9.28-7,7.17C508.11,48.24,497.8,58.95,487.5,69.75c-16.2-1.46-32.63-2.45-48.9-3L413.88,66,432.3,82.55c7.71,6.9,15.37,14.13,22.85,21.53-5.8,6.22-11.76,12.65-17.81,19.2L395.21,81.95l-42.15,41.62c-6.14-6.66-12.2-13.18-18.07-19.48,7.47-7.4,15.14-14.62,22.85-21.53L376.26,66l-24.73.76c-16.26.5-32.7,1.49-48.9,3C292.36,59,282,48.26,271.95,37.88l-7-7.17L257.18,40a413.24,413.24,0,0,0-28.89,40.07l-8.77,2.09-1.75,1.64a123.42,123.42,0,0,0-12.4,13.89L170.78,68.13c-3.58-3.4-16-13.86-32.56-13.86A38.5,38.5,0,0,0,116.39,61c-22.06,14.85-34,40.09-27.16,57.48A50.08,50.08,0,0,0,99,133.82l-5.39,13c-4.88,11.79-9.71,23.88-14.39,36-14.18.05-28.51.29-42.68.7L22.09,184l8,15.19.15.28,2.23,4.25h0c4.35,8.14,13.17,24.4,23.88,43.09l-2.07,7.66.68,2.4c.1.36,10.62,36.89,42.53,81.27,3.79,5.29,7.83,10.58,12,15.72a323.34,323.34,0,0,0,54.82,53l-14.89,10.53c-3.56,2.52-7.26,5-11,7.51-6.48-5.52-12.7-11.3-18.55-17.22l-17.81-18,3,31.17c.79,7.42,1.78,14.84,2.94,22.13-3.66,2-7.36,3.87-11,5.7L66.36,463.85l13.19,8.62c.2.13,17.91,11.69,35.66,22.13q-1.24,1-2.43,2.24A28.23,28.23,0,0,0,106.34,527c2.78,7.45,12.19,19.17,21.25,24.07A28.35,28.35,0,0,0,141,554.54a28,28,0,0,0,14.78-4.3c7.44-4.64,12.09-10.41,13.88-17.18l3-2.24A187.14,187.14,0,0,0,199,538.43c6,1.23,12.21,2.2,18.41,2.87a208.7,208.7,0,0,0,22.79,1.24,222,222,0,0,0,52.07-6.26A232.39,232.39,0,0,0,335,521.41l61,60.21,61.35-60.57a232.57,232.57,0,0,0,43.52,15.23,222.07,222.07,0,0,0,52.09,6.26,209,209,0,0,0,22.78-1.24c6.21-.68,12.41-1.65,18.45-2.88a207.22,207.22,0,0,0,26.89-7.53l2.85,2.16c1.78,6.77,6.44,12.55,13.88,17.18a28,28,0,0,0,14.78,4.3A28.37,28.37,0,0,0,666,551.09c9.05-4.9,18.46-16.62,21.24-24.07a28.23,28.23,0,0,0-6.44-30.17q-1.28-1.28-2.62-2.4c17.7-10.42,35.18-21.84,35.37-22l13.19-8.62-30.58-15.22c-3.68-1.83-7.38-3.74-11-5.7,1.16-7.27,2.15-14.7,2.94-22.13l4.2-29.3-1.56,1.41.3-3.22-17.74,18c-5.85,5.92-12.08,11.7-18.55,17.22-3.78-2.48-7.48-5-11-7.51l-15.93-11.26a323.44,323.44,0,0,0,53.86-52.31c4.19-5.15,8.24-10.44,12-15.71a326.52,326.52,0,0,0,35.94-63.27l1.8-4.4c3.21-8.1,4.65-13.06,4.8-13.61l.68-2.4-2.07-7.66c11-19.16,20-35.75,24.18-43.67h0l2.46-4.72.84-1.6L769.06,184Zm-125.77,1.35c33.38-25.19,42.34-31.82,43.82-32.82q4.7-3.19,8.65-6.21l-.33.72c-5.47,12.1-11,24.46-16.43,36.78C653.58,183.71,638.81,184.39,628.82,184.88ZM121,152.06c1.46,1,10.31,7.54,43.62,32.67-12.79-.62-25.54-1.09-38-1.4-5.4-12.23-10.91-24.58-16.42-36.76l-1.73-3.82C112.06,145.76,116.22,148.84,121,152.06Z"/></g><g id="Layer_4" data-name="Layer 4"><path class="cls-2" d="M679.16,445.86c1.42-8.41,2.61-17.05,3.54-25.74l1.53-15.84-7.09,7.18c-6.89,7-14.28,13.75-22,20.15-5-3.19-9.87-6.49-14.58-9.82l-18.87-13.34-2.11,2.75c-8.16,10.6-31.71,39.35-42.59,45.05-3,1.62-6.22,3.19-9.5,4.69-13.74,6.37-42.67,17-82,17-27.49,0-55.54-5.16-83.34-15.33l-5-1.88-.63,3.63-.63-3.63-5,1.87C363.13,472.83,335.08,478,307.59,478c-39.3,0-68.23-10.68-82-17.06-3.25-1.48-6.44-3.05-9.5-4.69-10.85-5.68-34.41-34.43-42.58-45l-2.12-2.75L152.54,421.8c-4.69,3.32-9.59,6.61-14.58,9.81-7.71-6.4-15.1-13.17-22-20.15l-7.1-7.19,1.54,15.94c.92,8.62,2.11,17.24,3.53,25.64-4.81,2.64-9.71,5.2-14.59,7.62l-22.12,11,5.27,3.45c.23.15,22.78,14.87,42.46,26.06q.79,2.7,1.61,5.4l.78,2.56h1.54c10.2,7.2,36.71,24,71.16,31.17,5.85,1.2,11.88,2.14,17.91,2.8a203.44,203.44,0,0,0,22.19,1.21h0A216.62,216.62,0,0,0,291,531c37.49-9,74.27-28.64,103.56-55.38l2-1.87,2,1.87C427.86,502.38,464.64,522,502.13,531a216.61,216.61,0,0,0,50.82,6.11,203.79,203.79,0,0,0,22.19-1.2c6-.66,12.07-1.6,17.93-2.8,27.62-5.77,52.79-16.89,70.85-31.3l.55-.44c1.25-.75,1.85-2.37,2.59-4.38.38-1,.75-2.08,1-3,19.69-11.19,42.27-25.93,42.5-26.08l5.27-3.45-22.12-11C688.87,451.05,684,448.5,679.16,445.86Z"/><path class="cls-2" d="M754.42,188.95c-15.35-.45-30.9-.69-46.24-.71-5.07-13.22-10.33-26.44-15.67-39.32l-3.19-7.71-3.44,7.6c-5.94,13.13-11.91,26.53-17.79,39.87-14.86.4-40.18,1.67-48,2.07-.56-2.72-1.15-5.42-1.78-8.09-1.55-6.49-3.36-12.9-5.37-19-15.39-47.11-39.62-71.45-44.32-75.85l-.7-.65-9.51-2.27a407.42,407.42,0,0,0-29.68-41.4l-3.9-4.67-2.79,2.87c-10.7,11-21.61,22.34-32.45,33.73-16.94-1.58-34.15-2.65-51.18-3.17l-9.89-.31,7.37,6.6C445,86.64,454,95.19,462.68,103.95c-10.19,10.9-20.59,22.13-30.95,33.41l-3.52,3.84,5.95,2.41.93.43c30.62,14,52.88,36.09,63.43,48,2.88,3.23,5.78,6.65,8.63,10.2,17.69,21.6,46.66,65.38,65,136.82a564.86,564.86,0,0,1-70.42,109.12l-3.3,4,3.69,2.13q3.56,2.05,7.1,4.15l1.73,1,.68-.36,3.41-1.1c41-13.34,77.25-31.85,107.84-55a318,318,0,0,0,54.52-52.62c4.12-5.06,8.1-10.26,11.82-15.45,31.33-43.57,41.32-78.14,41.73-79.59l.27-1L729,246c15.13-26.32,26.51-47.84,27.68-50.13h0l.85-1.63,2.7-5.12Z"/><path class="cls-2" d="M113.69,350.38A317.89,317.89,0,0,0,168.2,403c30.58,23.18,66.87,41.69,107.85,55l3.4,1.1.68.36,1.73-1q3.54-2.09,7.1-4.15l3.7-2.14-3.33-4a564.85,564.85,0,0,1-71-110.41C236.67,267.1,265.4,223.7,283,202.21c2.82-3.51,5.72-6.93,8.62-10.18,10.55-11.9,32.81-34,63.43-48l6.87-2.84-3.52-3.83c-10.38-11.31-20.78-22.54-30.95-33.41,8.71-8.77,17.7-17.31,26.77-25.43l7.37-6.6-9.89.31c-17,.52-34.25,1.59-51.19,3.17C289.69,64,278.78,52.67,268.06,41.65l-2.79-2.87-3.92,4.68a408.33,408.33,0,0,0-29.67,41.38l-9.51,2.27-.7.65c-4.7,4.4-28.93,28.74-44.32,75.84-2,6.14-3.83,12.54-5.38,19-.61,2.57-1.18,5.17-1.72,7.79-15.7-.81-31.51-1.41-47.06-1.77-5.84-13.27-11.82-26.67-17.78-39.86l-3.44-7.6-3.19,7.71C93.26,161.8,88,175,82.92,188.24c-15.34,0-30.89.26-46.24.71l-5.77.17,3.54,6.76h0C35.62,198.17,47,219.68,62.13,246l-2.26,8.38.27,1c.1.36,10.38,36,41.72,79.59C105.59,340.13,109.56,345.33,113.69,350.38Z"/><path class="cls-3" d="M547.11,88.58,546,87a283.6,283.6,0,0,0-22.43-29.6l-1.7-1.94-.84,7c-.86,7.22-1.71,14.5-2.54,21.71,8.57,1.17,17.2,2.48,25.72,3.92Z"/><path class="cls-3" d="M506.83,185.5c4.57,5.18,9.07,10.7,13.37,16.41a323,323,0,0,1,36.67,62.9A419.9,419.9,0,0,1,578.42,326q3.12-6.76,5.78-13c-6.39-37.46-18.45-75.17-34.52-106.65-.45-.91-.92-1.82-1.39-2.73-6.67-13.2-15.87-27.11-22.42-36.46-3.85-5.5-7.09-9.87-9.14-12.58-2.23-2.95-3.24-4.28-3.82-4.88-8.24-10.16-16.82-20.14-25.51-29.7-10.69,4.13-21.45,8.38-32.06,12.65l-9.22,3.71C461,144.2,483.45,159,506.83,185.5Z"/><path class="cls-3" d="M553.71,205.95a380.28,380.28,0,0,1,29.08,83.39q2.05,9.17,3.64,18.44c2.91-7,5.38-13.3,7.43-18.83,0-.39,0-.78-.06-1.17-1.82-28.67-6.48-55.27-13.85-79.05-12.92-41.61-34.11-74.35-63-97.31l-1.4-1.11c-.92,8.25-1.82,16.56-2.7,24.75l-.6,5.66a330.46,330.46,0,0,1,40.68,63.66Z"/><path class="cls-3" d="M519.32,108c25.92,20.26,45.71,48.3,58.82,83.34,2.31,6.16,4.46,12.71,6.4,19.48,6.16,21.46,10.17,45.28,11.94,70.88,1-2.82,1.95-5.6,2.84-8.3,7.17-21.77,11.82-42.36,13.89-61.45-.84-6.07-1.88-12-3.13-17.73a231.18,231.18,0,0,0-7-25.89c-15-45.26-39.83-69-45.7-74.11l-12.22,4.37C536.57,101.61,527.92,104.77,519.32,108Z"/><path class="cls-3" d="M670.15,469.13c-1.3,5.42-2.72,10.85-4.23,16.18l.2-.12a221.22,221.22,0,0,0,26.21-18.28l-2,.25C683.66,468,676.88,468.64,670.15,469.13Z"/><path class="cls-3" d="M507.29,495.25a213.69,213.69,0,0,0,51.91-6.11l2.51-.62c12.2-2.91,25.12-8.17,33.8-12.07,5.14-2.31,9.22-4.32,11.73-5.6l2.83-1.46-2.71-.1,15.46-9.56c5.21-3.22,10.36-6.62,15.36-10.13-2.68-6-5.36-12.05-8-18.13l-2.38-5.54c-5.32,6.68-18.92,22.65-46,37.3-4.93,2.64-10.11,5.11-15.4,7.33a199.64,199.64,0,0,1-57.9,14.39c-7.07.7-14.34,1.05-21.61,1.05a242.5,242.5,0,0,1-61.61-8.11l-.58,1.75c24.88,10.24,53.41,15.64,82.51,15.65Z"/><path class="cls-3" d="M561,491.3l-1.1.26-.35.08a227.58,227.58,0,0,1-51.82,6,224.56,224.56,0,0,1-23.45-1.22,220.7,220.7,0,0,1-48.11-10.52l-.68,1.71a245.65,245.65,0,0,0,48.36,16.34,222.35,222.35,0,0,0,48.9,5.51,200.8,200.8,0,0,0,21.56-1.15c35.31-3.66,67.2-17.17,90-38.08-1.27,0-2.55,0-3.81,0h0c-5,0-10-.09-15-.28l-9-.33A216,216,0,0,1,561,491.3Z"/><path class="cls-3" d="M648,470.79c-20.05,19-46.85,32-77.61,37.67-5.83,1.08-11.88,1.9-18,2.44s-12.12.81-18.27.81a226.59,226.59,0,0,1-49.45-5.58A250.15,250.15,0,0,1,419,481.19l-1,1.54c38.51,29.57,87.16,46.53,133.46,46.53h0c4.66,0,9.28-.18,13.71-.53a188.44,188.44,0,0,0,24.13-3.22c38.52-8,61.2-24.69,69.67-32l-3.39-6.91C653,481.31,650.44,476,648,470.79Z"/><path class="cls-3" d="M271.61,84.17q-1.25-10.83-2.54-21.71l-.84-7-1.7,1.94A283.65,283.65,0,0,0,244.09,87L243,88.58l2.87-.48C254.41,86.65,263,85.34,271.61,84.17Z"/><path class="cls-3" d="M273.4,154.6c-2,2.71-5.29,7.08-9.14,12.58-6.54,9.35-15.74,23.26-22.41,36.45-.47.92-.94,1.84-1.39,2.73-15.84,31-27.79,68.12-34.25,105q2.69,6.31,5.86,13.25a418.58,418.58,0,0,1,21.18-59.84,323,323,0,0,1,36.68-62.9c4.3-5.7,8.79-11.22,13.37-16.41C306.68,159,329.18,144.2,344,136.38l-9.22-3.71c-10.61-4.27-21.38-8.52-32.06-12.65-8.67,9.54-17.26,19.52-25.52,29.7C276.63,150.32,275.62,151.66,273.4,154.6Z"/><path class="cls-3" d="M210.19,208.72c-7.28,23.47-11.91,49.69-13.77,77.95,2,5.63,4.56,12.17,7.58,19.46q1.5-8.43,3.35-16.8a380.3,380.3,0,0,1,29.08-83.39l.13-.27.63-1.3a330.37,330.37,0,0,1,40.68-63.66l-.6-5.66c-.86-8-1.76-16.32-2.7-24.75l-1.39,1.11C244.3,134.37,223.11,167.12,210.19,208.72Z"/><path class="cls-3" d="M193.82,279.38a341.35,341.35,0,0,1,11.77-68.61c1.94-6.77,4.1-13.32,6.4-19.48,13.11-35,32.9-63.09,58.82-83.35-8.58-3.18-17.24-6.33-25.85-9.41l-12.22-4.37c-5.87,5.12-30.64,28.75-45.7,74.11a231.21,231.21,0,0,0-7,25.88q-1.47,6.73-2.56,13.78c1.83,20.19,6.61,42.13,14.28,65.41C192.43,275.33,193.12,277.35,193.82,279.38Z"/><path class="cls-3" d="M735.9,202.72c-8,4.58-16.12,9.27-24.21,14,2.61,7.06,5.2,14.22,7.72,21.32l.76,2.15,1.34-2.4c9.55-17.08,16.1-30.18,19.15-36.47l.88-1.81Z"/><path class="cls-3" d="M602.82,294.92a550.07,550.07,0,0,1-29.18,63.63,577.29,577.29,0,0,1-47.87,74.68l2,1.81C559.07,406.86,589,367.47,616.73,318l1.47-2.67c11-20.29,23.18-47.58,27.89-58.37l.18-.42.13-.28.61-1.43-.46.27,6.58-15.36c3.23-7.54,6.53-15.19,9.86-22.83-8.59-4.54-17.33-9-26-13.18l-9.78-4.75,0,.26c-.43,5.36-3.25,34.23-17.25,76C607.75,281.62,605.37,288.26,602.82,294.92Z"/><path class="cls-3" d="M654,250.59a721.9,721.9,0,0,1-33.53,67.85l-.74,1.3-.12.21A565.37,565.37,0,0,1,573.42,390a372.93,372.93,0,0,1-33.82,37.9l1.78,2.06a439.55,439.55,0,0,0,41-33.39,400.68,400.68,0,0,0,51.14-56.8c25.45-34.57,42.71-70.38,51.32-106.45l.27-1.12c-8.07,4.74-16.14,9.51-24.08,14.23Z"/><path class="cls-3" d="M689.53,231.48l0,.19c-7.52,32.39-22,64.59-42.9,95.71-3.66,5.43-7.62,11-11.79,16.46a406.06,406.06,0,0,1-49.14,53.71,438.47,438.47,0,0,1-56.92,44.1L530,444c53.77-20.67,98.7-51.82,133.53-92.58,5.76-6.73,11.26-13.74,16.33-20.82a294.12,294.12,0,0,0,32-56.85c4.53-10.81,7.64-20.49,8.37-23.94l-8.88-5.45C704.13,240,696.82,235.67,689.53,231.48Z"/><path class="cls-3" d="M71.7,238c2.52-7.11,5.11-14.27,7.72-21.32-8.1-4.7-16.22-9.39-24.21-14l-5.64-3.23.88,1.81c3,6.28,9.58,19.37,19.15,36.47l1.34,2.4Z"/><path class="cls-3" d="M144.55,255l-.46-.27.61,1.43.11.26h0l.17.39c4.7,10.78,16.83,38.06,27.91,58.43l1.47,2.67C202.12,367.47,232,406.86,263.3,435l2-1.81a577.34,577.34,0,0,1-47.87-74.68,549.77,549.77,0,0,1-29.18-63.63c-2.55-6.67-4.93-13.31-7.08-19.74-14-41.75-16.83-70.62-17.25-76l0-.26-9.78,4.75c-8.7,4.22-17.44,8.64-26,13.18,3.29,7.55,6.59,15.21,9.86,22.83Z"/><path class="cls-3" d="M157.56,339.77a400.83,400.83,0,0,0,51.14,56.79,439.63,439.63,0,0,0,41,33.39l1.78-2.06A373,373,0,0,1,217.68,390a565.83,565.83,0,0,1-46.24-70.05l-.85-1.5a721.73,721.73,0,0,1-33.53-67.85l-7-4.16c-8-4.73-16-9.5-24.08-14.23l.27,1.12C114.84,269.38,132.11,305.2,157.56,339.77Z"/><path class="cls-3" d="M261.11,444l1.26-2.4a438.16,438.16,0,0,1-56.92-44.1,405.86,405.86,0,0,1-49.15-53.71c-4.17-5.5-8.13-11-11.79-16.46-20.94-31.12-35.38-63.32-42.9-95.71l0-.19C94.27,235.67,87,240,79.81,244.4l-8.87,5.44c.72,3.46,3.83,13.13,8.36,23.94a294.12,294.12,0,0,0,32,56.85c5.07,7.09,10.56,14.09,16.32,20.82C162.41,392.22,207.34,423.37,261.11,444Z"/><path class="cls-3" d="M102.76,467.16l-2-.25A221.57,221.57,0,0,0,127,485.2l.21.12c-1.5-5.33-2.92-10.76-4.22-16.19C116.22,468.64,109.45,468,102.76,467.16Z"/><path class="cls-3" d="M284.54,484.92a199.64,199.64,0,0,1-57.9-14.39c-5.29-2.22-10.47-4.69-15.4-7.33-27-14.64-40.64-30.62-46-37.3l-2.38,5.54c-2.61,6.07-5.28,12.15-8,18.14,5,3.51,10.15,6.91,15.36,10.13l15.46,9.56-2.71.1c.69.37,1.6.84,2.83,1.46,2.51,1.29,6.59,3.3,11.73,5.61,8.69,3.9,21.6,9.16,33.79,12.07l2.52.62a213.69,213.69,0,0,0,51.92,6.12c29.1,0,57.63-5.41,82.51-15.65l-.58-1.75A242.49,242.49,0,0,1,306.14,486C298.88,486,291.61,485.62,284.54,484.92Z"/><path class="cls-3" d="M285.37,497.6h0a227.57,227.57,0,0,1-51.82-6l-.41-.1-1-.25a216,216,0,0,1-55.55-21.68l-9,.33c-6.21.23-12.48.31-18.76.25,22.77,20.91,54.65,34.42,90,38.08a201,201,0,0,0,21.57,1.15,222.44,222.44,0,0,0,48.9-5.51,245.66,245.66,0,0,0,48.37-16.34l-.68-1.71a220.59,220.59,0,0,1-48.11,10.52A224.54,224.54,0,0,1,285.37,497.6Z"/><path class="cls-3" d="M308.44,506.14A226.55,226.55,0,0,1,259,511.72c-6.15,0-12.29-.27-18.26-.81s-12.14-1.37-18-2.44c-30.76-5.69-57.56-18.71-77.61-37.67-2.5,5.27-5,10.56-7.59,15.76l-3.39,6.91c8.47,7.36,31.16,24.09,69.68,32.05A188.05,188.05,0,0,0,228,528.73c4.44.35,9.06.53,13.73.53,46.3,0,94.95-17,133.46-46.53l-1-1.54A250.23,250.23,0,0,1,308.44,506.14Z"/><path class="cls-4" d="M515.69,61.82q-12,12.44-23.64,24.63-15.84-1.64-31.8-2.66,8.91,8.61,17.58,17.66-12.5,13.25-24.52,26.19,17.75-7.15,35.83-14.1,9.32,10.21,18.34,20.94,1.55-14.5,3.18-29.1,16.21-6.06,32.68-11.95Q528,90.85,512.53,88.84,514.07,75.37,515.69,61.82Z"/><path class="cls-4" d="M672.12,429.5q-7.71,7-16,13.56-10.82-6.68-20.87-13.79,4.78,11.1,9.81,22.18-9.39,6.8-19.36,13,12.58.46,25.4.13,4.6,9.8,9.39,19.57,2.84-10.06,5.18-20.23,11.9-.75,24-2.22-10.87-5.41-21.1-11.25Q670.61,440,672.12,429.5Z"/><path class="cls-4" d="M329.89,83.79q-16,1-31.8,2.66-11.61-12.2-23.65-24.63,1.61,13.55,3.16,27-15.47,2-30.81,4.59,16.47,5.89,32.68,11.95,1.63,14.59,3.18,29.1,9-10.72,18.34-20.94,18.08,7,35.83,14.1-12-12.94-24.52-26.19Q321,92.4,329.89,83.79Z"/><path class="cls-4" d="M733.13,198q-17.24-.35-34.49-.34-4.91-12.74-10-25.28-5.74,12.78-11.33,25.43-19,.26-37.92,1,15.46,7.5,30.64,15.63-6,13.75-11.83,27.35,14.68-8.73,29.68-17.52,13.29,7.52,26.33,15.52-4.55-12.84-9.27-25.48Q718.9,206.2,733.13,198Z"/><path class="cls-4" d="M121.07,214.44q15.17-8.12,30.64-15.63-19-.7-37.92-1-5.59-12.65-11.33-25.43-5.08,12.53-10,25.28-17.24,0-34.48.34,14.23,8.16,28.18,16.27Q81.44,227,76.89,239.8q13-8,26.33-15.52,15,8.79,29.68,17.52Q127.08,228.19,121.07,214.44Z"/><path class="cls-4" d="M157.82,429.26q-10,7.1-20.87,13.79-8.24-6.54-16-13.56,1.51,10.5,3.55,20.92-10.23,5.83-21.1,11.25,12.06,1.48,24,2.22,2.34,10.17,5.18,20.23,4.79-9.77,9.39-19.57,12.82.34,25.41-.13-10-6.17-19.36-13Q153,440.37,157.82,429.26Z"/><path class="cls-1" d="M508.54,92l.4-3.54c.62-5.42,1.25-10.9,1.9-16.39-5.38,5.59-10.8,11.25-16.19,16.91l-1.22,1.28L491.67,90c-7.24-.75-14.57-1.41-21.9-2,3.59,3.58,7.16,7.21,10.66,10.87l2.38,2.48-2.36,2.5q-6.73,7.13-13.51,14.39c7-2.75,14-5.48,20.9-8.15l2.3-.89,1.66,1.82c4.35,4.77,8.7,9.67,13,14.64.75-6.91,1.51-13.87,2.28-20.76l.25-2.21,2.08-.78c6.47-2.42,13-4.83,19.54-7.21-5.63-.85-11.27-1.64-16.87-2.37Z"/><path class="cls-1" d="M664.53,452.27l.5-2.54c.71-3.62,1.37-7.28,2-10.93q-4.23,3.61-8.61,7.08l-2,1.58-2.16-1.33q-5.37-3.31-10.64-6.8c1.58,3.58,3.17,7.13,4.76,10.62l1.22,2.69-2.39,1.73q-4.72,3.41-9.61,6.69h2.88c3.5,0,7,0,10.56-.14l2.36-.06,1,2.14c1.69,3.59,3.41,7.22,5.15,10.85.92-3.58,1.8-7.19,2.63-10.77l.6-2.62,2.69-.17c3.93-.25,7.89-.56,11.84-.92q-5.35-2.85-10.54-5.81Z"/><path class="cls-1" d="M307.32,101.43l2.38-2.48c3.5-3.65,7.06-7.28,10.66-10.87-7.33.56-14.66,1.22-21.89,2l-1.76.18-1.22-1.28c-5.34-5.61-10.76-11.27-16.19-16.91q1,8.21,1.9,16.39L281.6,92l-3.53.46c-5.6.72-11.24,1.52-16.87,2.37,6.54,2.38,13.08,4.79,19.54,7.21l2.08.78.25,2.21c.78,7,1.55,14,2.28,20.76,4.27-5,8.62-9.86,13-14.64l1.66-1.82,2.3.89c6.94,2.67,13.93,5.39,20.9,8.15q-6.8-7.27-13.51-14.39Z"/><path class="cls-1" d="M700.5,212.72l2.63-1.53c5.62-3.27,11.25-6.53,16.84-9.75-6.71-.08-13.44-.12-20.13-.12h-3.68l-.89-2.31c-2.21-5.74-4.49-11.55-6.81-17.34-2.66,6-5.29,11.88-7.85,17.66l-.94,2.12-2.32,0c-7.78.11-15.64.27-23.5.49,6,3,12,6.14,17.87,9.3l2.94,1.57-1.33,3.06c-2.49,5.71-5,11.44-7.44,17.14,6.69-4,13.44-7.93,20.15-11.87l1.8-1.05,1.81,1c5.91,3.35,11.85,6.8,17.73,10.31-1.91-5.3-3.86-10.6-5.83-15.87Z"/><path class="cls-1" d="M117.76,215.89l-1.34-3.06,2.94-1.57c5.9-3.16,11.87-6.27,17.87-9.3-7.85-.22-15.71-.39-23.5-.49l-2.32,0-.94-2.12c-2.64-6-5.26-11.88-7.85-17.66-2.3,5.76-4.58,11.56-6.81,17.35l-.89,2.31H91.26c-6.69,0-13.42,0-20.13.12,5.6,3.23,11.23,6.49,16.84,9.75l2.63,1.53-1.06,2.85c-2,5.23-3.9,10.54-5.82,15.87,5.88-3.51,11.81-7,17.72-10.31l1.81-1,1.8,1.05c6.69,3.92,13.43,7.89,20.15,11.87C122.72,227.28,120.23,221.55,117.76,215.89Z"/><path class="cls-1" d="M143.51,452.64l1.22-2.69c1.59-3.5,3.18-7.05,4.76-10.62q-5.26,3.47-10.64,6.8l-2.16,1.33-2-1.58q-4.36-3.46-8.61-7.08c.62,3.66,1.28,7.31,2,10.93l.5,2.55-2.25,1.29q-5.18,2.95-10.54,5.81c4,.37,7.91.68,11.84.92l2.69.17.6,2.63c.82,3.59,1.7,7.19,2.63,10.78,1.74-3.61,3.46-7.24,5.15-10.85l1-2.14,2.36.06c4.47.12,9,.16,13.44.13q-4.88-3.27-9.61-6.69Z"/></g><g id="Layer_1" data-name="Layer 1"><path class="cls-2" d="M677,500.68c-6.7-6.7-13.21-8.11-17.49-8.11h-.59L167.15,72.15c-2.67-2.55-14-12.47-28.93-12.47a33.18,33.18,0,0,0-18.81,5.85c-19.71,13.26-31,36.14-25.14,51,4.09,10.4,13,19.68,29.73,31.05C134.93,155,455.45,398.27,628.78,530c1,6.14,5,11.41,11.87,15.69a22.55,22.55,0,0,0,11.92,3.48h0a22.94,22.94,0,0,0,10.85-2.8c7.64-4.14,16.35-14.79,18.74-21.2A22.87,22.87,0,0,0,677,500.68Z"/><path class="cls-4" d="M669,508.64c-3.19-3.19-6.39-4.8-9.52-4.8a8.22,8.22,0,0,0-3.74.87L159.56,80.49c-.88-.87-9.93-9.54-21.34-9.54a22.1,22.1,0,0,0-12.51,3.93c-16.16,10.87-24.38,28.78-20.94,37.53,3.19,8.12,10.84,15.85,25.57,25.85C144,147.55,612,503.08,640.28,524.54a6.35,6.35,0,0,0-.43,3.25c.37,2.93,2.64,5.72,6.76,8.29a11.15,11.15,0,0,0,6,1.77h0a11.47,11.47,0,0,0,5.49-1.45c5.34-2.89,12.12-11.41,13.55-15.23A11.76,11.76,0,0,0,669,508.64Zm-2.13,9c-3.91,6.46-8.11,11.12-11.84,13.14a5.1,5.1,0,0,1-2.45.68,4.82,4.82,0,0,1-2.59-.81,11.35,11.35,0,0,1-3.48-3l-.41-.61,2.79-2.91-.22-.19.6-.62-3.83-2.91C625.14,505,148.14,142.63,133.92,133c-13.4-9.09-20.56-16.16-23.21-22.9-1.26-3.19.83-10.8,6.51-18.43A48.74,48.74,0,0,1,123.16,85l5.69-5.27-4.31,6.45c-5,7.53-7.14,15.28-5.38,19.75,3,7.57,10.32,14.92,24.56,24.59,12.89,8.75,419.63,317.68,501,379.51,3,2.27,5.08,2.75,6.3,2.75a3,3,0,0,0,2.08-.63l1.66-1.6-.11,2.3s-.19,4,1.58,5.91c1.13,1.19,2.9,1.22,5.23.16a22.81,22.81,0,0,0,4.05-2.48l3.72-2.75Z"/><path class="cls-5" d="M123.16,85l5.69-5.27-4.31,6.45c-5,7.53-7.14,15.28-5.38,19.75,3,7.57,10.32,14.92,24.56,24.59,12.89,8.75,419.63,317.68,501,379.51,3,2.27,5.08,2.75,6.3,2.75a3,3,0,0,0,2.08-.63l1.66-1.6-.11,2.3s-.19,4,1.58,5.91c1.13,1.19,2.9,1.22,5.23.16,2.06-2,3.74-4,4.09-4.89.18-.47-1.33-4.19-2.9-5.08-6-3.41-9.47.83-9.47.83L153,83.4s-7.19-7-15.25-7a13.42,13.42,0,0,0-7.68,2.45,47.21,47.21,0,0,0-12.86,12.82A48.74,48.74,0,0,1,123.16,85Z"/><path class="cls-5" d="M144.29,523.75l.17-.15-.2-.2-.18.13Z"/><path class="cls-2" d="M674.18,65.53a33.18,33.18,0,0,0-18.8-5.85c-14.91,0-26.26,9.92-28.93,12.47L134.69,492.58h-.59c-4.28,0-10.79,1.41-17.49,8.11a22.87,22.87,0,0,0-5.19,24.45c2.39,6.41,11.1,17.06,18.75,21.2a22.94,22.94,0,0,0,10.85,2.8,22.55,22.55,0,0,0,11.92-3.48c6.86-4.28,10.85-9.55,11.87-15.69C338.14,398.27,658.67,155,669.59,147.58c16.75-11.37,25.65-20.65,29.73-31C705.16,101.67,693.89,78.79,674.18,65.53Z"/><path class="cls-4" d="M667.89,74.88A22.1,22.1,0,0,0,655.38,71C644,71,634.92,79.62,634,80.49L137.84,504.71a8.22,8.22,0,0,0-3.74-.87c-3.13,0-6.34,1.62-9.52,4.8a11.76,11.76,0,0,0-2.6,12.54c1.42,3.82,8.2,12.33,13.55,15.23a11.47,11.47,0,0,0,5.49,1.45,11.15,11.15,0,0,0,6-1.77c4.12-2.57,6.4-5.36,6.76-8.29a6.34,6.34,0,0,0-.43-3.25c28.25-21.46,496.26-377,510-386.29,14.73-10,22.38-17.73,25.57-25.85C692.27,103.66,684,85.75,667.89,74.88Zm15,35.19c-2.65,6.74-9.81,13.81-23.21,22.9-14.17,9.62-491.23,372-511.53,387.47l-3.89,3,.2.2-.17.15,3.2,3.33-.41.61a11.39,11.39,0,0,1-3.48,3,4.81,4.81,0,0,1-2.59.81h0a5.08,5.08,0,0,1-2.44-.68c-3.74-2-7.94-6.69-11.85-13.15l-2.4-4,3.72,2.75a23,23,0,0,0,4,2.45c2.37,1.08,4.16,1.07,5.3-.14,1.48-1.56,1.64-4.79,1.58-5.91l-.13-2.46,1.7,1.79a3.07,3.07,0,0,0,2.06.62c1.22,0,3.31-.48,6.3-2.75,81.39-61.83,488-370.69,501-379.51,14.24-9.66,21.58-17,24.56-24.58,1.76-4.47-.35-12.23-5.38-19.75l-4.31-6.45L670.44,85a48.83,48.83,0,0,1,4.1,4.31C681.6,97.68,684.28,106.56,682.89,110.07Z"/><path class="cls-5" d="M137.32,518.76c1.48-1.56,1.64-4.79,1.58-5.91l-.13-2.46,1.7,1.79a3.07,3.07,0,0,0,2.06.62c1.22,0,3.31-.48,6.3-2.75,81.39-61.83,488-370.69,501-379.51,14.24-9.66,21.58-17,24.56-24.58,1.76-4.47-.35-12.23-5.38-19.75l-4.31-6.45L670.44,85a48.83,48.83,0,0,1,4.1,4.31,47.51,47.51,0,0,0-11.48-10.88A13.42,13.42,0,0,0,655.38,76c-8.06,0-15.2,7-15.27,7.05l-.39.36L140,509.34s-6-5.46-11.32-1c-1.38,1.15-1.29,4.78-1.11,5.26.37,1,2.24,3.1,4.48,5.31C134.39,520,136.18,520,137.32,518.76Z"/><polygon class="cls-2" points="395.22 89.55 150.26 331.4 395.98 574.01 636.42 336.61 641.72 331.38 395.22 89.55"/><polygon class="cls-4" points="374.04 137.99 368.25 132.23 193.6 304.67 199.61 310.6 374.04 137.99"/><polygon class="cls-4" points="589.89 308.31 595.87 302.41 423.98 133.77 418.25 139.53 589.89 308.31"/><polygon class="cls-4" points="424.7 518.17 424.7 529.6 598.31 358.18 592.4 352.2 424.7 518.17"/><polygon class="cls-4" points="196.01 360.51 367.52 529.85 367.52 518.42 201.91 354.52 196.01 360.51"/><rect class="cls-4" x="174.2" y="315.14" width="31.28" height="34.63" transform="translate(-180.14 234.08) rotate(-45.38)"/><rect class="cls-4" x="586.45" y="312.81" width="31.28" height="34.63" transform="translate(-58.2 518.57) rotate(-44.66)"/><rect class="cls-4" x="380.43" y="111.91" width="31.28" height="33.38" transform="translate(25.43 318.43) rotate(-45.11)"/><polygon class="cls-4" points="373.93 532.83 396.38 555.02 418.29 532.85 418.29 508.53 373.93 508.53 373.93 532.83"/></g><g id="Layer_5" data-name="Layer 5"><path class="cls-2" d="M398.62,229.07l-2.73,0A136.65,136.65,0,0,0,259.23,363c-1.45,75.32,58.71,137.79,134.11,139.27l2.74,0h0A136.64,136.64,0,0,0,532.73,368.35C534.19,293,474,230.55,398.62,229.07Z"/><path class="cls-6" d="M393.55,491.67A126,126,0,1,1,522.14,368.15,126.15,126.15,0,0,1,393.55,491.67Z"/><path class="cls-7" d="M469.65,460.14c.61,2.64-3.54,4.61-6.45,5.24C465.06,463.33,468.15,462.56,469.65,460.14Z"/><path class="cls-7" d="M337.92,452.19c-3.77,2.95-11.91,2-14.13-1.74-1.46.68.61,1.91-.07,3.42,2,2.09,4.72,3.44,9.22,3.1-4.82,4.46-12.09-1.27-16-4.7-3.54-3.09-6.53-7.81-6.62-11.35,5.05,2.33,4.43,10.1,12,10q0-1,0-1.95c-4.12-2.36-6.41-5.93-8.72-9.9-.79-1.36-.41-3.87,1.34-2.31a11.66,11.66,0,0,1,2.07,3c1.06,1.85,2.09,4,3.92,5.27,2.07,1.39,3.94,1.29,6.32,1.59C326.11,452.2,334.87,453.05,337.92,452.19Z"/><path class="cls-7" d="M328,460.77c-4.59,3.2-10.48-1.53-12.1-5.6-5.09-1.82-8.09-5.63-8.56-11.88,3.6,4.52,5.42,10.75,12.47,12C318.81,459,323.32,461,328,460.77Z"/><path class="cls-7" d="M308.12,275.47a23.83,23.83,0,0,0-5.54,8.67C302.12,280.84,304.49,276.18,308.12,275.47Z"/><path class="cls-7" d="M473.46,465.09c-2.22-.63,2.23-2.1,1.55-4.36-2.41,2.47-3.3,6.52-8.42,6.18,2.58-1.79,5.63-3.11,7-6.21.21-3.07-2.92-2.94-3.31-5.43-2.37,2.68-3.64,6.51-8.43,6.66,2.58-2,4.44-4.67,6.49-7.19-.43-2.14-1.62-3.55-2.34-5.41-2.22,3.83-3.35,8.79-9.93,8.1-.41-2.59,2.1-2.14,3.47-2.86,2.14-.42,2.83-4.48,4.47-3.81-.76-1.82,0-5.11-1.34-6.37-1.62,5-7.19,10-12.37,8.05,4-3.91,13.33-6.65,10.06-14.93-3.29,4.22-6.42,8.59-13.36,9,2.34-6.68,16.77-8.63,9.64-18.84-2.08,4.79-8,10.41-13.35,8.52,3.93-6,14.42-7.33,11.6-18.8-3.45,4.09-9.12,9.92-14.34,9,2.49-8.52,13.85-7.84,12.6-20.24-4.21,3.75-6.85,9.14-13.87,10-.16-.64-.84-.78-.95-1.48,3.39-7.54,18.93-9.47,12.64-22.19-3.46,4.15-8.09,9.33-14.34,9,1.69-8.19,16-9.73,14.09-21.68-4.45,3.42-9.32,8.52-15.29,7.51,2.68-10.13,21.68-10.94,16.06-22.13-4.83,2.44-10.54,7.59-16.24,6,.09-.56-.09-.87-.47-1,4-7.82,17.45-5.75,17.44-17.71-3.71,1.84-7.63,5.64-11.95,5.87s-1.12-4.61.59-5.89a32.55,32.55,0,0,1,6.15-3.14c5-2.34,7.58-5.73,6-11.45-4.49,2.25-9,5.06-14.74,4.59,1.47-10.41,18.57-4.6,17.43-17.71-4.53.81-11.52,5.38-16.66,2.6,2.58-6.61,11.89-6.23,18.72-8.41,0-2.46.93-3.33-.39-4.89-5.67-.51-10,1.35-14.16-.28,3.37-4.38,9.52-6,16.69-4.07,1.22.11,1.54-.72,2-1.42.58.93,0,2,.41,3.91,4.16,1.78,7,5.68,8.67,9.74,1.9,4.49-3.73.16-4.82-1-1.81-1.84-3.64-3.49-6.39-3.47-1.12.5-.25,3.06-.57,4.38,2.67,1.76,6,3.68,8.13,6.11a6.92,6.92,0,0,1,1.19,2.65c1,3.25-1.86,2.39-3.59,1.05-2.65-2-4-4.4-7.79-4.48-1.22,2.33-.3,6.4-.15,7.8,3.5.06,7.48,3.5,8.71,6.72,2.15,5.63-4.36,1.17-6.26.19-.35-.18-5.11-1.69-5-1.1.49,2.88.08,6.62,1.79,8.33,3.13.11,5.56,1.59,8.11,3.23,1,.67,6.22,3,3.44,4.74-1,.6-3.28.11-4.33-.08-.77-.14-6.53-2.41-6.85-2-5.88,6.85,6.86,10,11,11.44-1.59,6.22-8.36,1.18-12.71.73-2.39,1.74-.18,6.26.83,7.82a105,105,0,0,1,11.19,2.17c-1.21.62.5,1.82-.53,1.94-2.65,4-8.39,1.19-13.2.71-1.8,9.51,11.24,5.79,15.47,8.11-1.33,5.65-7.7,5.75-13.75,4.12-2.4,2.14-.51,7.59.79,9.28,3.51-.07,10.4-1.59,13.71-1.68-.39,5.17-8,7.13-14.29,6.55-.32,2.69.57,4.23,1.35,5.88.5,1,6.73-1.14,7.6-1.44,1.29-.46,4.74-1.83,5.57.15,1.1,2.64-3.61,4.26-5.23,4.6-.79.16-8.59,1.06-8.52,1.56.4,2.81,2.28,4.19,3.3,6.41,7.23,1,9.84-5.32,14.75-5.08-3,5.62-6.21,11-15.32,9a29.44,29.44,0,0,0,3.31,5.43c4.56-.58,7.57-2.75,10.84-4.67a2.14,2.14,0,0,0,.94,2c-1.24,4.79-7.48,5.53-11.83,5.62a9.2,9.2,0,0,0,2.35,4.93c7-.23,9.68-7.49,14.33-8.5-2.8,5.71-5.06,12-13.9,11.43.22,1.7,1.59,2.3,2.37,3.46,8-.33,9.38-7.5,14.38-10.94-1.57,7.49-5.34,12.69-13.45,13.4a5.33,5.33,0,0,0,1.89,3.45c5.77-.64,8.52-4.41,11.87-7.57-.94,5.49-5.12,7.61-9.94,9.07,6.07,1.82,8.11-4.84,11.86-7.08-.77,5.83-5.16,7.91-10,9.56,5.58,1.32,9.3-3.6,10.9-8.08,1.77,4.88-3.64,6.82-7,9.13.24,1,2.31.16.95,1.48-.25,2.34-.17-.58-1.46,0C476.19,461.62,474.67,463.19,473.46,465.09Z"/><path class="cls-7" d="M489.21,282c.81-.59,2.76,1.79,2.86,3.47C490.59,284.77,490.69,282.6,489.21,282Z"/><path class="cls-7" d="M491,288.82c-2.77-3.08-3-8.62-7.62-9.91-.15,2.53,5.53,5.65,3.72,9.83-1.92-3.62-2.71-10.75-8.12-9.43,1.59,4.05,6.9,4.54,5.64,11.34-1.66-3-2.86-6.51-6.2-7.93a2.31,2.31,0,0,1-1.47.46c.73,5,6.21,5.52,5.14,12.3-2.55-2.43-4.56-11.65-9.63-7,2.89,3.45,6.65,6.06,6.6,12.33-3.36-2.67-4.22-7.76-9.6-8.49-1.06-.1-.26,1.73-.54,2.43,4.92,2.14,5.78,8.17,8.05,12.85-3.74-.72-5.07-7.89-10.58-8.5a6.59,6.59,0,0,0-1.05,3.88c3.23,2.8,6.59,5.48,7.12,10.88-4-1.4-5.5-9.33-11.12-6.08,3.29-8.22-8.66-3.72-13.56-6.12,3.5-3.91,10.19-3.91,15.67-2.13,1.27-.35,1.73-1.52,1.53-3.39-2.41-4.79-12.31.2-14.08-4.67,4.64-1.86,13-3,16.59.81.72-.58.78-1.85,1.51-2.41-1.55-4.74-9.58-3.25-13.07-6.12,4.53-2.88,12.68-.7,15.09,2.74,1-.32,1.33-1.28,1.51-2.41-1.57-4.08-6.78-4.66-11.12-6.07,4.57-2.87,10,.55,13.12,3.19,2.72-3.23-3.87-7-9.15-7,4.95-3,10.13,1.64,12.12,4.63,3.6-5.36-5.37-6.55-7.63-9.42,5.13.82,8.55,3.27,10.61,7,.67-.14.43-1.21.52-1.94.56.74,1.39,1.22,1.42,2.46,2-3-1.61-4.83-3.31-5.92-1.07.31.89,1.64,1.43,2-1.65.46-4.43-2.11-6.29-3.05,3.43-.65,9.59.62,10.11,7.52.27.14.65-.77.51-1C487,279.46,491,283.1,491,288.82Z"/><path class="cls-7" d="M342.48,393.25a18.42,18.42,0,0,0-.15,7.8,17.83,17.83,0,0,0,5.31-.89c1.66-.49,9.26-3.72,10-1,.45,1.7-2.29,3-3.43,3.57-3.68,1.83-8.77,3.66-12.94,3.67-1.3,1.95-1.77,6-.64,7.79,4.83,0,11.72-4,15.16-.68-3.14,6.69-18.78.39-18.28,10.86,3,2,9.15,0,15.12,1.27-3.84,4.37-11.37,5.83-18.64,4,1.54.56,0,2.19.4,4.4,1.44,3.07,9.1,1.69,11.68,2.18-.79,3.85-8.22,4.39-13.24,2.67-5.41,6.67,7.55,5.86,11.12,6.07-3.8,4.38-11.67,2.31-17.11.64-.61-3.06-3.22-4.53-5.44-6.35a18,18,0,0,1-5.3-7.45c-.75-2.55,2.26-.8,3,0a26.21,26.21,0,0,1,2.81,3.78c2.07,3,4.55,5.36,8.42,5.25,2.37-3.82-1.11-6.17-4-8.15a15,15,0,0,1-4-3.27,19.12,19.12,0,0,1-2.23-4.54c-.32-.93-1-2.55.41-2.4,2.27.24,4,3.38,5.48,4.8A16.77,16.77,0,0,0,333,431.6c1.1-.19.24-2.4.55-3.41a22.5,22.5,0,0,1-8-6.85c-1.09-1.37-2.06-2.88-3.23-4.17-.29-.32-3.64-3.26-2.11-3.7,2.46-.71,5.5,2.65,7.1,4.09,2.27,2.05,4.69,4,7.83,4.32,2-.72.72-4.66.61-6.33-5.62-1.29-8.47-5.26-11.05-9.48-1.55-.74-3.87-.75-3.35-3.48,7.56.27,8.81,7.26,16.44,8.61.43.08,1.12-2.74,1.14-3.13a4.15,4.15,0,0,0-.62-2.48c-1-1.65-3-2.64-4.56-3.6a41.87,41.87,0,0,1-5-3.73c-2-1.6-5.2-2.88-4.46-6.1,2.25-1.48,5.79,1.51,7.5,2.75,2.37,1.71,4.79,3.59,7.74,4.12,2.41-4.61,1-8-3.44-10.33-1.89-1-3.91-1.71-5.76-2.77-1.69-1-5.59-2.28-4.88-4.88.41-1.48,2.34-1,3.5-.66,4.1,1.14,7.36,4.57,11.84,4.52,2.13-2,.3-6.87-.31-9.27-3.32,0-6.08-1.32-8.88-3-1.26-.74-7.12-2.88-3.51-4.56,1.16-.54,3-.07,4.21.18,3.28.71,6.39,2.14,9.74,2.5,1.23-2-.57-4.71-.35-7.33-6.45-1.32-12.57-3.53-17.51-3.76,2.49-6.12,10.84-2.46,17.63-2.58.38-2.76-.8-4-.85-6.35a18.84,18.84,0,0,0-4.44-1c-2.09-.28-4.19-.35-6.29-.55-1.27-.12-4.12-.1-5.09-1.06-1.81-1.79,1.11-3.27,2.5-3.54,4.35-.84,8.61.7,12.93.81,1.53-2.44-.17-5.88-.33-8.3-4.25.07-8.62.44-12.85-.15-1.31-.18-2.64-.42-2.05-2.05a3.3,3.3,0,0,1,1.86-1.67c2.23-1.06,5-1.19,7.4-1.32a54.79,54.79,0,0,1,5.74-.17,19.49,19.49,0,0,0-2.32-6.39c-3.09-.78-6.16.58-9,1.51-1.92.61-6,1.69-4.79-2,.66-2,3.85-3.08,5.69-3.52a52.53,52.53,0,0,1,8.25-.9c-.51-2.38-1-4.83-2.32-6.39-5.44.66-10.63,3.64-14.25,4.6,0-5.33,6.67-8,12.39-9,.76-2.74-.26-2.3-.89-4.41-7.38-.69-8.67,4.93-15.24,5.07a14.49,14.49,0,0,1,15.32-9c-.13-2.27-1.6-3.25-2.35-4.93-8.92-2.23-8.82,7.32-15.26,6,3.5-4,4.81-10.26,12.88-9.51-5.5-9.12-9.88,4-16.21,4.56,1.61-4.25,6.37-11.24,12.42-11a5.33,5.33,0,0,0-1.89-3.45c-5.91.66-7.21,6.11-11.88,8.06.49-4.8,6.7-10.09,11.44-10.51a4.39,4.39,0,0,0-1.91-2c-6.76.78-8.77,6.48-12.41,10.49.51-5,4.75-10.33,9.52-12.5-4.5-1.48-9.16,4.93-10.93,9.55-.3-3.3,2-8.23,5.55-9.16-4.56-1.42-5.33,5.41-7.48,8.15-.61-4.46,3.06-8.76,7-10.11-2.15-1.39,1.23-3.45,2-4.84.9.09.27,1.66.94,2,.51-2.45,1.67-4.23,4.48-4.3-1.5,1.09-4,3.22-2.55,5.8,1.42-5.15,6.13-6.89,10.91-8.57-3.11,3.07-8.58,3.69-9.93,8.59-.4,1.5,1.32,1,.93,2.46,3.47-4.36,6.46-9.21,13.38-10-3.72,3.94-9.52,5.7-11.45,11.48,3.32,4.05,2.22,1.46,4.43-1.87s8.82-5.56,11.37-7.1c-2.2,5.74-16.52,9.12-9.12,16.9,2.56-5.8,7.87-8.75,13.41-11.45-1.28,7.61-14,8.13-9.63,18.36,2.09-7,8.61-9.31,14.88-11.91-2,8-17.7,9.66-11.14,20.28,2.44-6.26,7.5-9.8,14.39-11.44-1.31,6.83-19.47,10.15-11.15,20.77,2.83-5.85,8.4-8.86,15.34-10.44-2,9.1-17.16,9.1-13.11,21.21a50.4,50.4,0,0,1,6.2-6.29,15.27,15.27,0,0,1,4-2.22c.64-.24,3.63-1.24,3.87.21.31,1.85-1.19,2.91-2.27,3.87-5,4.48-13.68,7.91-9.58,16.19,2.44-1.45,3.89-4.09,6.21-5.7,2.13-1.49,5.3-3.56,8-3.05a2.07,2.07,0,0,1,1,3.5,24.6,24.6,0,0,1-4.57,3.54c-1.91,1.29-3.95,2.38-5.89,3.61-1,.65-4.72,2.64-4.89,4-.43,3.45.44,5.65.82,8.31,5.15-3.74,10.32-10.59,18.71-7.93-5,6.11-13.44,8.59-18.36,14.77.5,1.75.52,4,1.36,5.39,3.92-3.17,9.85-8.62,16.71-5.53-2.37,6-13.42,7.27-17.83,12.82a11.37,11.37,0,0,0,1.34,6.37c4.43-3.29,8.75-6.39,16.2-4.08.18,2.51-1.68,2.89-4,2.85-3.33,3.17-8.73,4.2-12.83,6.58-.85,3.14-1.2,6.22-.18,9.26,4.76-1.85,9.35-5.74,15.69-3.11-.13,4.66-2.44,3.09-4,3.34C351.77,388.31,347.41,392.47,342.48,393.25Z"/><path class="cls-7" d="M320.14,462.57c-2.17,0-6.28-2.26-6.73-5.5q-1.59-.17-1.49,1.43c-1.23-.42-1.21-2-1.9-3-1.73,1.39.21,1.58-1-.51-1-1.87-7.16-6.73-4.69-9.85,2.72,4.88,4.26,10.91,11,11.92C315.08,460.74,318.51,460.79,320.14,462.57Z"/><path class="cls-7" d="M305.69,452c-2.17-.86-7.36-4.74-6.68-8.43,2.11.2,1.07,3.44,2.36,4.44.84-.14-.6-1.71,1.49-1.44C302.77,449.43,304.54,450.44,305.69,452Z"/><path class="cls-7" d="M479.46,458.38c3.4-2.77,6.57-5.77,8-10.58,4.51,2.89-1.19,7.45-3.6,9.2C482.08,454.72,483.64,458.88,479.46,458.38Z"/><path class="cls-1" d="M395.89,246a119.13,119.13,0,0,0-58.77,15.39,135.61,135.61,0,0,1,29-3.12,134,134,0,0,1,81.74,27.6,6.52,6.52,0,0,1,.71-.34q.57-.23,1.17-.44a6.3,6.3,0,0,1-.13-1.74,6.38,6.38,0,0,1,2.95-5,13.94,13.94,0,0,1,2.59-1.28,6.37,6.37,0,0,1,2.92-4.48,13.85,13.85,0,0,1,1.46-.8,6.36,6.36,0,0,1,2.6-3.07,13.53,13.53,0,0,1,1.61-.84,6.61,6.61,0,0,1,.22-.74A120.2,120.2,0,0,0,398.29,246Z"/><path class="cls-1" d="M515.76,368a118.29,118.29,0,0,0-23.1-73,6.38,6.38,0,0,1-3.33,0,6.37,6.37,0,0,1-.82.75q0,.37-.11.76a6.38,6.38,0,0,1-3,4.44,6.39,6.39,0,0,1-2.36,4.83,6.38,6.38,0,0,1-4.25,7.94,6.37,6.37,0,0,1-1.25,3.94,130.11,130.11,0,0,1,11.3,123.58A119.38,119.38,0,0,0,515.76,368Z"/><path class="cls-2" d="M580.39,385.11l-9,4.15c-47.75,22.14-116.95,36.45-176.3,36.45h-2.43c-62-.4-125.76-13.58-174.86-36.17l-9-4.08-12.25,15.36-27.79,34.83-10.62,13.68,14.52,6.21c58.34,28.09,142.86,45.66,220.57,45.85h1.22c76.53,0,164-18,222.75-45.82l14.51-6.87Z"/><path class="cls-4" d="M614.55,440.5l-34-42.06-1.79-2.21-2.58,1.2c-48.84,22.65-119.53,37.28-180.08,37.28h-2.49c-63.26-.4-128.34-13.88-178.56-37l-2.69-1.16-3.44,4.4-32.52,40.76-3.28,3.83,4.42,1.89c57.21,27.54,140.24,44.77,216.69,45h1.2c75.3,0,161.23-17.65,218.9-45l4.15-1.9ZM607.6,444c-56.7,25.77-140,42.42-212.13,42.42h-1.18c-72.13-.18-154.55-16.83-210-42.41l-1.57-.72,1.08-1.35,14.33-18,16.09-20.16,1,.43c50.55,22.71,115.58,36,178.42,36.36h2.5c61,0,130-14,180-36.66l1-.43,32.1,39.76Z"/><text></text><path class="cls-2" d="M696.84,248.78a562.14,562.14,0,0,0-145.33-69.19,529.61,529.61,0,0,0-156.65-24h-1.56a521.82,521.82,0,0,0-154.84,24.3A560.76,560.76,0,0,0,95.11,248.73l-10,6.7,52.72,94.92,11.92-8.42c73.07-51.65,158.5-79,247.06-79,88.75,0,173.28,27.42,244.45,79.29l11.88,8.66,7.23-12.81,36.88-65.35,9.57-17.3Z"/><path class="cls-4" d="M691.86,256.26a553.17,553.17,0,0,0-143-68.09,520.64,520.64,0,0,0-154-23.65h-1.53a512.8,512.8,0,0,0-152.18,23.88,551.8,551.8,0,0,0-141,67.79L97,258.3l43.58,78.46.24.44,3.73-2.62c75-52.76,162.09-80.65,251.9-80.65S572.82,282,646.55,335l3.71,2.67,5.35-9.48,36.49-64.65,3.08-5.22Zm-6,5.37L648.2,328.33l-1.22-.87c-74.07-52.28-160.71-79.92-250.56-79.92S219.44,275,144.15,327l-1.23.85-37.51-67.54,1-.69c87.57-57.74,186.78-88.43,286.88-88.74h1.51c100.22,0,203.44,31.53,290.63,88.79l1.06.7Z"/><text></text><text class="cls-8" transform="matrix(0.91, -0.41, 0.41, 0.91, 180.32, 290.96)">M</text><text class="cls-8" transform="translate(232.39 268.21) rotate(-18.97)">L</text><text class="cls-8" transform="translate(263.67 257.33) rotate(-14.85)">B</text><text class="cls-8" transform="translate(300.84 247.79) rotate(-11.69)"> </text><text class="cls-8" transform="translate(315.08 244.49) rotate(-8.49)">P</text><text class="cls-8" transform="translate(352.05 239.02) rotate(-4.03)">L</text><text class="cls-8" transform="translate(384.93 236.43) rotate(0.94)">A</text><text class="cls-8" transform="translate(422.36 236.87) rotate(5.61)">Y</text><text class="cls-8" transform="translate(457.5 239.89) rotate(11.09)">O</text><text class="cls-8" transform="translate(504.99 249.51) rotate(16.6)">F</text><text class="cls-8" transform="translate(537.74 259.24) rotate(21.04)">F</text><text class="cls-8" transform="translate(569.65 271.49) rotate(25.34)">S</text><text class="cls-9" transform="translate(342.24 479.72) rotate(3.71)">2</text><text class="cls-9" transform="translate(369.41 481.45) rotate(0.9)">0</text><text class="cls-9" transform="matrix(1, -0.03, 0.03, 1, 396.6, 481.85)">1</text><text class="cls-9" transform="translate(423.76 480.96) rotate(-4.45)">8</text></g></svg>